# MagicaVoxel @ Ephtracy

# group
o 

# material
mtllib Grond.mtl
usemtl palette

# normals
vn -1 0 0
vn 1 0 0
vn 0 0 1
vn 0 0 -1
vn 0 -1 0
vn 0 1 0

# texcoords
vt 0.369141 0.5
vt 0.869141 0.5
vt 0.904297 0.5
vt 0.958984 0.5
vt 0.982422 0.5

# verts
v -0.5 0 0.5
v -0.5 0 -0.2
v -0.5 0 -0.3
v -0.5 0 -0.5
v -0.5 0.1 0.2
v -0.5 0.1 0.1
v -0.5 0.1 -0.2
v -0.5 0.1 -0.3
v -0.5 0.1 -0.4
v -0.5 0.2 0.4
v -0.5 0.2 0.3
v -0.5 0.2 0.2
v -0.5 0.2 0.1
v -0.5 0.2 -0.3
v -0.5 0.2 -0.4
v -0.5 0.3 0.4
v -0.5 0.3 0.3
v -0.5 0.3 0
v -0.5 0.3 -0.1
v -0.5 0.4 0.5
v -0.5 0.4 0.4
v -0.5 0.4 0.3
v -0.5 0.4 0.2
v -0.5 0.4 0
v -0.5 0.4 -0.1
v -0.5 0.4 -0.3
v -0.5 0.4 -0.4
v -0.5 0.4 -0.5
v -0.5 0.5 0.5
v -0.5 0.5 0.4
v -0.5 0.5 0.3
v -0.5 0.5 0.2
v -0.5 0.5 0.1
v -0.5 0.5 0
v -0.5 0.5 -0.3
v -0.5 0.5 -0.4
v -0.5 0.5 -0.5
v -0.5 0.6 0.5
v -0.5 0.6 0.1
v -0.5 0.6 0
v -0.5 0.6 -0.5
v -0.5 1 0.5
v -0.5 1 -0.5
v 0.5 0 0.5
v 0.5 0 -0.5
v 0.5 0.1 0.5
v 0.5 0.1 0.4
v 0.5 0.1 0.2
v 0.5 0.1 0.1
v 0.5 0.1 -0.2
v 0.5 0.1 -0.3
v 0.5 0.2 0.5
v 0.5 0.2 0.4
v 0.5 0.2 0.2
v 0.5 0.2 0.1
v 0.5 0.2 -0.2
v 0.5 0.2 -0.3
v 0.5 0.3 -0.2
v 0.5 0.3 -0.3
v 0.5 0.4 0.5
v 0.5 0.4 0.4
v 0.5 0.4 0.1
v 0.5 0.4 0
v 0.5 0.4 -0.2
v 0.5 0.4 -0.3
v 0.5 0.5 0.5
v 0.5 0.5 0.4
v 0.5 0.5 0.1
v 0.5 0.5 0
v 0.5 0.5 -0.2
v 0.5 0.5 -0.3
v 0.5 0.6 0.5
v 0.5 0.6 -0.2
v 0.5 0.6 -0.3
v 0.5 0.6 -0.5
v 0.5 1 0.5
v 0.5 1 -0.5
v -0.5 0 0.5
v -0.5 0.4 0.5
v -0.5 0.5 0.5
v -0.5 0.6 0.5
v -0.5 1 0.5
v -0.4 0.2 0.5
v -0.4 0.3 0.5
v -0.4 0.4 0.5
v -0.4 0.5 0.5
v -0.3 0.2 0.5
v -0.3 0.3 0.5
v -0.2 0.4 0.5
v -0.2 0.5 0.5
v -0.1 0.1 0.5
v -0.1 0.2 0.5
v -0.1 0.4 0.5
v -0.1 0.5 0.5
v 0 0.1 0.5
v 0 0.2 0.5
v 0 0.4 0.5
v 0 0.5 0.5
v 0.1 0.2 0.5
v 0.1 0.3 0.5
v 0.1 0.4 0.5
v 0.1 0.5 0.5
v 0.2 0.2 0.5
v 0.2 0.3 0.5
v 0.2 0.4 0.5
v 0.2 0.5 0.5
v 0.3 0 0.5
v 0.3 0.1 0.5
v 0.4 0 0.5
v 0.4 0.1 0.5
v 0.4 0.2 0.5
v 0.4 0.4 0.5
v 0.4 0.5 0.5
v 0.5 0 0.5
v 0.5 0.1 0.5
v 0.5 0.2 0.5
v 0.5 0.4 0.5
v 0.5 0.5 0.5
v 0.5 0.6 0.5
v 0.5 1 0.5
v -0.5 0 -0.5
v -0.5 0.4 -0.5
v -0.5 0.5 -0.5
v -0.5 0.6 -0.5
v -0.5 1 -0.5
v -0.4 0.4 -0.5
v -0.4 0.5 -0.5
v -0.3 0.1 -0.5
v -0.3 0.2 -0.5
v -0.3 0.4 -0.5
v -0.3 0.5 -0.5
v -0.2 0.1 -0.5
v -0.2 0.2 -0.5
v -0.2 0.3 -0.5
v -0.2 0.4 -0.5
v -0.2 0.5 -0.5
v -0.1 0.3 -0.5
v -0.1 0.4 -0.5
v 0 0 -0.5
v 0 0.1 -0.5
v 0.1 0 -0.5
v 0.1 0.1 -0.5
v 0.1 0.3 -0.5
v 0.1 0.4 -0.5
v 0.2 0.3 -0.5
v 0.2 0.4 -0.5
v 0.3 0.4 -0.5
v 0.3 0.5 -0.5
v 0.4 0.4 -0.5
v 0.4 0.5 -0.5
v 0.5 0 -0.5
v 0.5 0.6 -0.5
v 0.5 1 -0.5
v -0.5 0 0.5
v 0.3 0 0.5
v 0.4 0 0.5
v 0.5 0 0.5
v 0.3 0 0.4
v 0.4 0 0.4
v -0.5 0 -0.2
v -0.4 0 -0.2
v -0.5 0 -0.3
v -0.4 0 -0.3
v 0 0 -0.4
v 0.1 0 -0.4
v -0.5 0 -0.5
v 0 0 -0.5
v 0.1 0 -0.5
v 0.5 0 -0.5
v -0.5 1 0.5
v 0.5 1 0.5
v -0.5 1 -0.5
v 0.5 1 -0.5

# faces
f 5/1/1 2/1/1 1/1/1
f 6/1/1 2/1/1 5/1/1
f 7/2/1 3/2/1 2/2/1
f 7/1/1 2/1/1 6/1/1
f 8/1/1 4/1/1 3/1/1
f 8/2/1 3/2/1 7/2/1
f 9/1/1 4/1/1 8/1/1
f 10/1/1 5/1/1 1/1/1
f 11/1/1 5/1/1 10/1/1
f 12/5/1 6/5/1 5/5/1
f 12/1/1 5/1/1 11/1/1
f 13/1/1 7/1/1 6/1/1
f 13/5/1 6/5/1 12/5/1
f 13/1/1 8/1/1 7/1/1
f 14/4/1 9/4/1 8/4/1
f 14/1/1 8/1/1 13/1/1
f 15/1/1 4/1/1 9/1/1
f 15/4/1 9/4/1 14/4/1
f 16/4/1 11/4/1 10/4/1
f 16/1/1 10/1/1 1/1/1
f 17/1/1 12/1/1 11/1/1
f 17/4/1 11/4/1 16/4/1
f 17/1/1 14/1/1 13/1/1
f 17/1/1 13/1/1 12/1/1
f 17/1/1 15/1/1 14/1/1
f 18/1/1 15/1/1 17/1/1
f 19/1/1 15/1/1 18/1/1
f 20/1/1 16/1/1 1/1/1
f 20/1/1 17/1/1 16/1/1
f 20/1/1 18/1/1 17/1/1
f 21/1/1 18/1/1 20/1/1
f 22/1/1 18/1/1 21/1/1
f 23/1/1 18/1/1 22/1/1
f 24/5/1 19/5/1 18/5/1
f 24/1/1 18/1/1 23/1/1
f 25/1/1 15/1/1 19/1/1
f 25/5/1 19/5/1 24/5/1
f 26/1/1 15/1/1 25/1/1
f 27/1/1 4/1/1 15/1/1
f 27/1/1 15/1/1 26/1/1
f 28/1/1 4/1/1 27/1/1
f 29/5/1 21/5/1 20/5/1
f 30/1/1 22/1/1 21/1/1
f 30/5/1 21/5/1 29/5/1
f 31/2/1 23/2/1 22/2/1
f 31/1/1 22/1/1 30/1/1
f 32/1/1 24/1/1 23/1/1
f 32/2/1 23/2/1 31/2/1
f 32/1/1 26/1/1 25/1/1
f 32/1/1 25/1/1 24/1/1
f 33/1/1 26/1/1 32/1/1
f 34/1/1 26/1/1 33/1/1
f 35/5/1 27/5/1 26/5/1
f 35/1/1 26/1/1 34/1/1
f 36/2/1 28/2/1 27/2/1
f 36/5/1 27/5/1 35/5/1
f 37/2/1 28/2/1 36/2/1
f 38/1/1 31/1/1 30/1/1
f 38/1/1 30/1/1 29/1/1
f 38/1/1 32/1/1 31/1/1
f 38/1/1 33/1/1 32/1/1
f 39/4/1 34/4/1 33/4/1
f 39/1/1 33/1/1 38/1/1
f 40/1/1 35/1/1 34/1/1
f 40/4/1 34/4/1 39/4/1
f 40/1/1 37/1/1 36/1/1
f 40/1/1 36/1/1 35/1/1
f 41/1/1 37/1/1 40/1/1
f 42/3/1 39/3/1 38/3/1
f 42/3/1 40/3/1 39/3/1
f 42/3/1 41/3/1 40/3/1
f 43/3/1 41/3/1 42/3/1
f 44/1/2 45/1/2 46/1/2
f 46/1/2 45/1/2 47/1/2
f 47/1/2 45/1/2 48/1/2
f 48/1/2 45/1/2 49/1/2
f 49/1/2 45/1/2 50/1/2
f 50/1/2 45/1/2 51/1/2
f 46/5/2 47/5/2 52/5/2
f 47/1/2 48/1/2 53/1/2
f 52/5/2 47/5/2 53/5/2
f 48/4/2 49/4/2 54/4/2
f 53/1/2 48/1/2 54/1/2
f 49/1/2 50/1/2 55/1/2
f 54/4/2 49/4/2 55/4/2
f 50/5/2 51/5/2 56/5/2
f 55/1/2 50/1/2 56/1/2
f 51/1/2 45/1/2 57/1/2
f 56/5/2 51/5/2 57/5/2
f 55/1/2 56/1/2 58/1/2
f 52/1/2 53/1/2 58/1/2
f 56/1/2 57/1/2 58/1/2
f 54/1/2 55/1/2 58/1/2
f 53/1/2 54/1/2 58/1/2
f 57/1/2 45/1/2 59/1/2
f 58/1/2 57/1/2 59/1/2
f 52/1/2 58/1/2 60/1/2
f 60/1/2 58/1/2 61/1/2
f 61/1/2 58/1/2 62/1/2
f 62/1/2 58/1/2 63/1/2
f 58/4/2 59/4/2 64/4/2
f 63/1/2 58/1/2 64/1/2
f 59/1/2 45/1/2 65/1/2
f 64/4/2 59/4/2 65/4/2
f 60/2/2 61/2/2 66/2/2
f 61/1/2 62/1/2 67/1/2
f 66/2/2 61/2/2 67/2/2
f 62/2/2 63/2/2 68/2/2
f 67/1/2 62/1/2 68/1/2
f 63/1/2 64/1/2 69/1/2
f 68/2/2 63/2/2 69/2/2
f 64/1/2 65/1/2 69/1/2
f 69/1/2 65/1/2 70/1/2
f 65/1/2 45/1/2 71/1/2
f 70/1/2 65/1/2 71/1/2
f 67/1/2 68/1/2 72/1/2
f 66/1/2 67/1/2 72/1/2
f 69/1/2 70/1/2 72/1/2
f 68/1/2 69/1/2 72/1/2
f 70/2/2 71/2/2 73/2/2
f 72/1/2 70/1/2 73/1/2
f 71/1/2 45/1/2 74/1/2
f 73/2/2 71/2/2 74/2/2
f 74/1/2 45/1/2 75/1/2
f 72/3/2 73/3/2 76/3/2
f 73/3/2 74/3/2 76/3/2
f 74/3/2 75/3/2 76/3/2
f 76/3/2 75/3/2 77/3/2
f 83/1/3 79/1/3 78/1/3
f 84/1/3 79/1/3 83/1/3
f 85/5/3 80/5/3 79/5/3
f 85/1/3 79/1/3 84/1/3
f 86/1/3 81/1/3 80/1/3
f 86/5/3 80/5/3 85/5/3
f 87/2/3 84/2/3 83/2/3
f 87/1/3 83/1/3 78/1/3
f 88/1/3 85/1/3 84/1/3
f 88/2/3 84/2/3 87/2/3
f 88/1/3 86/1/3 85/1/3
f 89/1/3 88/1/3 87/1/3
f 89/1/3 86/1/3 88/1/3
f 90/1/3 81/1/3 86/1/3
f 90/1/3 86/1/3 89/1/3
f 91/1/3 89/1/3 87/1/3
f 91/1/3 87/1/3 78/1/3
f 92/1/3 89/1/3 91/1/3
f 93/4/3 90/4/3 89/4/3
f 93/1/3 89/1/3 92/1/3
f 94/1/3 81/1/3 90/1/3
f 94/4/3 90/4/3 93/4/3
f 95/5/3 92/5/3 91/5/3
f 95/1/3 91/1/3 78/1/3
f 96/1/3 93/1/3 92/1/3
f 96/5/3 92/5/3 95/5/3
f 97/2/3 94/2/3 93/2/3
f 97/1/3 93/1/3 96/1/3
f 98/1/3 81/1/3 94/1/3
f 98/2/3 94/2/3 97/2/3
f 99/1/3 97/1/3 96/1/3
f 99/1/3 96/1/3 95/1/3
f 99/1/3 98/1/3 97/1/3
f 100/1/3 98/1/3 99/1/3
f 101/1/3 98/1/3 100/1/3
f 102/1/3 81/1/3 98/1/3
f 102/1/3 98/1/3 101/1/3
f 103/1/3 99/1/3 95/1/3
f 103/4/3 100/4/3 99/4/3
f 104/1/3 101/1/3 100/1/3
f 104/4/3 100/4/3 103/4/3
f 105/5/3 102/5/3 101/5/3
f 105/1/3 101/1/3 104/1/3
f 106/1/3 81/1/3 102/1/3
f 106/5/3 102/5/3 105/5/3
f 107/1/3 95/1/3 78/1/3
f 107/1/3 103/1/3 95/1/3
f 107/1/3 106/1/3 105/1/3
f 107/1/3 104/1/3 103/1/3
f 107/1/3 105/1/3 104/1/3
f 108/1/3 106/1/3 107/1/3
f 109/2/3 108/2/3 107/2/3
f 110/1/3 106/1/3 108/1/3
f 110/2/3 108/2/3 109/2/3
f 111/1/3 106/1/3 110/1/3
f 112/1/3 106/1/3 111/1/3
f 113/1/3 81/1/3 106/1/3
f 113/1/3 106/1/3 112/1/3
f 114/1/3 110/1/3 109/1/3
f 115/5/3 111/5/3 110/5/3
f 115/1/3 110/1/3 114/1/3
f 116/1/3 112/1/3 111/1/3
f 116/5/3 111/5/3 115/5/3
f 117/2/3 113/2/3 112/2/3
f 117/1/3 112/1/3 116/1/3
f 118/1/3 81/1/3 113/1/3
f 118/2/3 113/2/3 117/2/3
f 119/3/3 82/3/3 81/3/3
f 119/1/3 81/1/3 118/1/3
f 120/3/3 82/3/3 119/3/3
f 121/1/4 122/1/4 126/1/4
f 122/2/4 123/2/4 126/2/4
f 123/1/4 124/1/4 127/1/4
f 126/2/4 123/2/4 127/2/4
f 121/1/4 126/1/4 128/1/4
f 126/1/4 127/1/4 128/1/4
f 128/1/4 127/1/4 129/1/4
f 129/1/4 127/1/4 130/1/4
f 127/1/4 124/1/4 131/1/4
f 130/1/4 127/1/4 131/1/4
f 121/1/4 128/1/4 132/1/4
f 128/4/4 129/4/4 132/4/4
f 129/1/4 130/1/4 133/1/4
f 132/4/4 129/4/4 133/4/4
f 133/1/4 130/1/4 134/1/4
f 130/4/4 131/4/4 135/4/4
f 134/1/4 130/1/4 135/1/4
f 131/1/4 124/1/4 136/1/4
f 135/4/4 131/4/4 136/4/4
f 134/5/4 135/5/4 137/5/4
f 133/1/4 134/1/4 137/1/4
f 132/1/4 133/1/4 137/1/4
f 135/1/4 136/1/4 138/1/4
f 137/5/4 135/5/4 138/5/4
f 121/1/4 132/1/4 139/1/4
f 132/1/4 137/1/4 139/1/4
f 137/1/4 138/1/4 139/1/4
f 139/1/4 138/1/4 140/1/4
f 139/2/4 140/2/4 141/2/4
f 140/1/4 138/1/4 142/1/4
f 141/2/4 140/2/4 142/2/4
f 142/1/4 138/1/4 143/1/4
f 138/1/4 136/1/4 144/1/4
f 143/1/4 138/1/4 144/1/4
f 142/1/4 143/1/4 145/1/4
f 141/1/4 142/1/4 145/1/4
f 143/2/4 144/2/4 145/2/4
f 144/1/4 136/1/4 146/1/4
f 145/2/4 144/2/4 146/2/4
f 145/1/4 146/1/4 147/1/4
f 146/1/4 136/1/4 147/1/4
f 136/1/4 124/1/4 148/1/4
f 147/1/4 136/1/4 148/1/4
f 145/1/4 147/1/4 149/1/4
f 147/5/4 148/5/4 149/5/4
f 148/1/4 124/1/4 150/1/4
f 149/5/4 148/5/4 150/5/4
f 141/1/4 145/1/4 151/1/4
f 145/1/4 149/1/4 151/1/4
f 149/1/4 150/1/4 151/1/4
f 124/3/4 125/3/4 152/3/4
f 151/1/4 150/1/4 152/1/4
f 150/1/4 124/1/4 152/1/4
f 152/3/4 125/3/4 153/3/4
f 158/1/5 155/1/5 154/1/5
f 158/2/5 156/2/5 155/2/5
f 159/1/5 157/1/5 156/1/5
f 159/2/5 156/2/5 158/2/5
f 160/1/5 158/1/5 154/1/5
f 160/1/5 159/1/5 158/1/5
f 161/1/5 159/1/5 160/1/5
f 162/2/5 161/2/5 160/2/5
f 163/1/5 159/1/5 161/1/5
f 163/2/5 161/2/5 162/2/5
f 164/1/5 163/1/5 162/1/5
f 164/1/5 159/1/5 163/1/5
f 165/1/5 159/1/5 164/1/5
f 166/1/5 164/1/5 162/1/5
f 167/2/5 165/2/5 164/2/5
f 167/1/5 164/1/5 166/1/5
f 168/1/5 159/1/5 165/1/5
f 168/2/5 165/2/5 167/2/5
f 169/1/5 157/1/5 159/1/5
f 169/1/5 159/1/5 168/1/5
f 170/3/6 171/3/6 172/3/6
f 172/3/6 171/3/6 173/3/6
