# MagicaVoxel @ Ephtracy

# group
o 

# material
mtllib snow.mtl
usemtl palette

# normals
vn -1 0 0
vn 1 0 0
vn 0 0 1
vn 0 0 -1
vn 0 -1 0
vn 0 1 0

# texcoords
vt 0.00195312 0.5
vt 0.0332031 0.5
vt 0.0683594 0.5
vt 0.306641 0.5
vt 0.833984 0.5
vt 0.837891 0.5
vt 0.955078 0.5
vt 0.958984 0.5
vt 0.994141 0.5

# verts
v -0.5 0.3 -2.98023e-08
v -0.5 0.3 -0.1
v -0.5 0.4 -2.98023e-08
v -0.5 0.4 -0.1
v -0.4 0.4 -2.98023e-08
v -0.4 0.4 -0.1
v -0.4 0.5 -2.98023e-08
v -0.4 0.5 -0.1
v -0.3 0.3 0.2
v -0.3 0.3 0.1
v -0.3 0.3 -2.98023e-08
v -0.3 0.3 -0.1
v -0.3 0.3 -0.2
v -0.3 0.3 -0.3
v -0.3 0.4 0.2
v -0.3 0.4 0.1
v -0.3 0.4 -2.98023e-08
v -0.3 0.4 -0.1
v -0.3 0.4 -0.2
v -0.3 0.4 -0.3
v -0.3 0.5 0.1
v -0.3 0.5 -2.98023e-08
v -0.3 0.5 -0.1
v -0.3 0.6 -2.98023e-08
v -0.3 0.6 -0.1
v -0.3 0.6 -0.2
v -0.3 0.7 0.2
v -0.3 0.7 0.1
v -0.3 0.7 -2.98023e-08
v -0.3 0.7 -0.1
v -0.3 0.7 -0.2
v -0.3 0.7 -0.3
v -0.3 0.8 0.1
v -0.3 0.8 -2.98023e-08
v -0.3 0.8 -0.2
v -0.3 0.8 -0.3
v -0.3 0.9 -0.2
v -0.3 0.9 -0.3
v -0.3 1 -2.98023e-08
v -0.3 1 -0.1
v -0.3 1.1 0.1
v -0.3 1.1 -2.98023e-08
v -0.3 1.1 -0.1
v -0.3 1.1 -0.2
v -0.3 1.2 0.2
v -0.3 1.2 0.1
v -0.3 1.2 -2.98023e-08
v -0.3 1.2 -0.1
v -0.3 1.2 -0.2
v -0.3 1.2 -0.3
v -0.2 0 -2.98023e-08
v -0.2 0 -0.1
v -0.2 0.1 -2.98023e-08
v -0.2 0.1 -0.1
v -0.2 0.2 -2.98023e-08
v -0.2 0.2 -0.1
v -0.2 0.3 -2.98023e-08
v -0.2 0.3 -0.1
v -0.2 0.4 0.1
v -0.2 0.4 -2.98023e-08
v -0.2 0.4 -0.1
v -0.2 0.4 -0.2
v -0.2 0.5 0.1
v -0.2 0.5 -2.98023e-08
v -0.2 0.5 -0.1
v -0.2 0.6 0.2
v -0.2 0.6 0.1
v -0.2 0.6 -0.1
v -0.2 0.6 -0.2
v -0.2 0.6 -0.3
v -0.2 0.7 0.2
v -0.2 0.7 0.1
v -0.2 0.7 -2.98023e-08
v -0.2 0.7 -0.2
v -0.2 0.7 -0.3
v -0.2 0.7 -0.4
v -0.2 0.8 0.1
v -0.2 0.8 -2.98023e-08
v -0.2 0.8 -0.3
v -0.2 0.9 0.3
v -0.2 0.9 0.2
v -0.2 0.9 -0.3
v -0.2 1.1 0.3
v -0.2 1.1 0.2
v -0.2 1.1 -0.3
v -0.2 1.1 -0.4
v -0.2 1.2 0.1
v -0.2 1.2 -2.98023e-08
v -0.2 1.2 -0.1
v -0.2 1.2 -0.2
v -0.2 1.3 0.1
v -0.2 1.3 -0.2
v -0.1 0.6 -0.3
v -0.1 0.6 -0.4
v -0.1 0.7 -0.3
v -0.1 0.7 -0.4
v -0.1 0.7 -0.5
v -0.1 1 -0.4
v -0.1 1 -0.5
v -0.1 1.1 0.3
v -0.1 1.1 0.2
v -0.1 1.2 0.3
v -0.1 1.2 0.2
v 0.1 0 -2.98023e-08
v 0.1 0 -0.1
v 0.1 0.1 -2.98023e-08
v 0.1 0.1 -0.1
v 0.1 0.2 -2.98023e-08
v 0.1 0.2 -0.1
v 0.1 0.3 -2.98023e-08
v 0.1 0.3 -0.1
v 0.1 0.5 -0.2
v 0.1 0.5 -0.3
v 0.1 0.5 -0.4
v 0.1 0.6 0.2
v 0.1 0.6 0.1
v 0.1 0.6 -0.2
v 0.1 0.6 -0.3
v 0.1 0.6 -0.4
v 0.1 0.7 0.2
v 0.1 0.7 0.1
v 0.2 0.4 -0.3
v 0.2 0.4 -0.4
v 0.2 0.5 -0.3
v 0.2 0.5 -0.4
v 0.2 0.6 -0.3
v 0.2 0.6 -0.4
v 0.2 0.7 0.2
v 0.2 0.7 0.1
v 0.2 0.7 -0.3
v 0.2 0.7 -0.4
v 0.2 0.8 0.1
v 0.2 0.9 0.1
v 0.2 1 0.2
v 0.2 1.1 0.2
v 0.2 1.1 0.1
v 0.3 0.3 -0.3
v 0.3 0.3 -0.4
v 0.3 0.4 -0.3
v 0.3 0.4 -0.4
v 0.3 0.5 -2.98023e-08
v 0.3 0.5 -0.1
v 0.3 0.5 -0.3
v 0.3 0.5 -0.4
v 0.3 0.6 -2.98023e-08
v 0.3 0.6 -0.1
v 0.3 0.6 -0.3
v 0.3 0.6 -0.4
v 0.4 0.4 -2.98023e-08
v 0.4 0.4 -0.1
v 0.4 0.4 -0.3
v 0.4 0.4 -0.4
v 0.4 0.5 -2.98023e-08
v 0.4 0.5 -0.1
v 0.4 0.5 -0.3
v 0.4 0.5 -0.4
v 0.4 0.6 -0.2
v 0.4 0.6 -0.3
v 0.4 0.7 -0.2
v 0.4 0.7 -0.3
v 0.5 0.3 -0.3
v 0.5 0.3 -0.4
v 0.5 0.4 -0.3
v 0.5 0.4 -0.4
v 0.6 0.4 -0.2
v 0.6 0.4 -0.3
v 0.6 0.5 -0.2
v 0.6 0.5 -0.3
v 0.6 0.6 -2.98023e-08
v 0.6 0.6 -0.1
v 0.6 0.7 -2.98023e-08
v 0.6 0.7 -0.1
v 0.7 0.5 -0.1
v 0.7 0.5 -0.2
v 0.7 0.6 -0.1
v 0.7 0.6 -0.2
v -0.4 0.3 -2.98023e-08
v -0.4 0.3 -0.1
v -0.4 0.4 -2.98023e-08
v -0.4 0.4 -0.1
v -0.3 0.4 -2.98023e-08
v -0.3 0.4 -0.1
v -0.3 0.5 -2.98023e-08
v -0.3 0.5 -0.1
v -0.2 0.7 0.2
v -0.2 0.7 0.1
v -0.2 0.8 0.2
v -0.2 0.8 0.1
v -0.1 0 -2.98023e-08
v -0.1 0 -0.1
v -0.1 0.1 -2.98023e-08
v -0.1 0.1 -0.1
v -0.1 0.2 -2.98023e-08
v -0.1 0.2 -0.1
v -0.1 0.3 -2.98023e-08
v -0.1 0.3 -0.1
v -0.1 0.6 0.2
v -0.1 0.6 0.1
v -0.1 0.7 0.2
v -0.1 0.7 0.1
v -0.1 0.8 0.2
v -0.1 0.8 0.1
v -0.1 0.9 0.2
v -0.1 0.9 0.1
v 0 0.9 0.3
v 0 0.9 0.1
v 0 1 0.3
v 0 1 0.2
v 0 1.1 0.2
v 0 1.1 0.1
v 0.1 0.6 -0.3
v 0.1 0.6 -0.4
v 0.1 0.7 -0.3
v 0.1 0.7 -0.4
v 0.1 0.7 -0.5
v 0.1 0.8 -0.4
v 0.1 0.8 -0.5
v 0.2 0 -2.98023e-08
v 0.2 0 -0.1
v 0.2 0.1 -2.98023e-08
v 0.2 0.1 -0.1
v 0.2 0.2 -2.98023e-08
v 0.2 0.2 -0.1
v 0.2 0.3 -2.98023e-08
v 0.2 0.3 -0.1
v 0.2 0.4 0.1
v 0.2 0.4 -2.98023e-08
v 0.2 0.4 -0.1
v 0.2 0.4 -0.2
v 0.2 0.5 0.1
v 0.2 0.5 -2.98023e-08
v 0.2 0.5 -0.1
v 0.2 0.5 -0.2
v 0.2 0.5 -0.3
v 0.2 0.5 -0.4
v 0.2 0.6 0.2
v 0.2 0.6 0.1
v 0.2 0.6 -2.98023e-08
v 0.2 0.6 -0.1
v 0.2 0.6 -0.2
v 0.2 0.6 -0.3
v 0.2 0.6 -0.4
v 0.2 0.7 0.2
v 0.2 0.7 0.1
v 0.2 0.7 -2.98023e-08
v 0.2 0.7 -0.3
v 0.2 0.7 -0.4
v 0.2 0.8 0.1
v 0.2 0.8 -2.98023e-08
v 0.2 0.8 -0.3
v 0.2 0.8 -0.4
v 0.2 0.8 -0.5
v 0.2 0.9 -0.3
v 0.2 0.9 -0.5
v 0.2 1 -0.4
v 0.2 1 -0.5
v 0.2 1.1 -0.3
v 0.2 1.1 -0.4
v 0.2 1.2 0.1
v 0.2 1.2 -2.98023e-08
v 0.2 1.2 -0.1
v 0.2 1.2 -0.2
v 0.2 1.3 0.1
v 0.2 1.3 -0.2
v 0.3 0.3 0.2
v 0.3 0.3 0.1
v 0.3 0.3 -2.98023e-08
v 0.3 0.3 -0.1
v 0.3 0.3 -0.2
v 0.3 0.3 -0.3
v 0.3 0.4 0.2
v 0.3 0.4 0.1
v 0.3 0.4 -2.98023e-08
v 0.3 0.4 -0.1
v 0.3 0.4 -0.2
v 0.3 0.4 -0.3
v 0.3 0.4 -0.4
v 0.3 0.5 0.1
v 0.3 0.5 -2.98023e-08
v 0.3 0.5 -0.3
v 0.3 0.5 -0.4
v 0.3 0.6 -2.98023e-08
v 0.3 0.6 -0.1
v 0.3 0.6 -0.3
v 0.3 0.6 -0.4
v 0.3 0.7 0.2
v 0.3 0.7 0.1
v 0.3 0.7 -2.98023e-08
v 0.3 0.7 -0.1
v 0.3 0.7 -0.2
v 0.3 0.7 -0.3
v 0.3 0.7 -0.4
v 0.3 0.8 0.1
v 0.3 0.8 -2.98023e-08
v 0.3 0.8 -0.1
v 0.3 0.8 -0.2
v 0.3 0.8 -0.3
v 0.3 0.9 -0.2
v 0.3 0.9 -0.3
v 0.3 1 0.3
v 0.3 1 0.2
v 0.3 1 -2.98023e-08
v 0.3 1 -0.1
v 0.3 1.1 0.3
v 0.3 1.1 0.2
v 0.3 1.1 0.1
v 0.3 1.1 -2.98023e-08
v 0.3 1.1 -0.1
v 0.3 1.1 -0.2
v 0.3 1.2 0.3
v 0.3 1.2 0.2
v 0.3 1.2 0.1
v 0.3 1.2 -2.98023e-08
v 0.3 1.2 -0.1
v 0.3 1.2 -0.2
v 0.3 1.2 -0.3
v 0.4 0.3 -2.98023e-08
v 0.4 0.3 -0.1
v 0.4 0.3 -0.3
v 0.4 0.3 -0.4
v 0.4 0.4 -2.98023e-08
v 0.4 0.4 -0.1
v 0.4 0.4 -0.3
v 0.4 0.4 -0.4
v 0.4 0.5 -2.98023e-08
v 0.4 0.5 -0.1
v 0.4 0.5 -0.3
v 0.4 0.5 -0.4
v 0.4 0.6 -2.98023e-08
v 0.4 0.6 -0.1
v 0.4 0.6 -0.3
v 0.4 0.6 -0.4
v 0.4 0.7 -0.1
v 0.4 0.7 -0.2
v 0.4 0.8 -0.1
v 0.4 0.8 -0.2
v 0.5 0.4 -2.98023e-08
v 0.5 0.4 -0.1
v 0.5 0.4 -0.3
v 0.5 0.4 -0.4
v 0.5 0.5 -2.98023e-08
v 0.5 0.5 -0.1
v 0.5 0.5 -0.3
v 0.5 0.5 -0.4
v 0.5 0.6 -0.2
v 0.5 0.6 -0.3
v 0.5 0.7 -0.2
v 0.5 0.7 -0.3
v 0.6 0.3 -0.3
v 0.6 0.3 -0.4
v 0.6 0.4 -0.3
v 0.6 0.4 -0.4
v 0.7 0.4 -0.2
v 0.7 0.4 -0.3
v 0.7 0.5 -0.2
v 0.7 0.5 -0.3
v 0.7 0.6 -2.98023e-08
v 0.7 0.6 -0.1
v 0.7 0.7 -2.98023e-08
v 0.7 0.7 -0.1
v 0.8 0.5 -0.1
v 0.8 0.5 -0.2
v 0.8 0.6 -0.1
v 0.8 0.6 -0.2
v -0.2 0.9 0.3
v -0.2 1.1 0.3
v -0.1 1.1 0.3
v -0.1 1.2 0.3
v 0 0.9 0.3
v 0 1 0.3
v 0.2 1.1 0.3
v 0.2 1.2 0.3
v 0.3 1 0.3
v 0.3 1.1 0.3
v 0.3 1.2 0.3
v -0.3 0.3 0.2
v -0.3 0.4 0.2
v -0.3 0.7 0.2
v -0.3 1.2 0.2
v -0.2 0.3 0.2
v -0.2 0.4 0.2
v -0.2 0.6 0.2
v -0.2 0.7 0.2
v -0.2 0.8 0.2
v -0.2 0.9 0.2
v -0.2 1.1 0.2
v -0.1 0.3 0.2
v -0.1 0.4 0.2
v -0.1 0.6 0.2
v -0.1 0.7 0.2
v -0.1 0.8 0.2
v -0.1 0.9 0.2
v -0.1 1.1 0.2
v -0.1 1.2 0.2
v 0 0.3 0.2
v 0 0.4 0.2
v 0.1 0.3 0.2
v 0.1 0.4 0.2
v 0.1 0.6 0.2
v 0.1 0.7 0.2
v 0.2 0.3 0.2
v 0.2 0.4 0.2
v 0.2 0.6 0.2
v 0.2 0.7 0.2
v 0.2 1 0.2
v 0.3 0.3 0.2
v 0.3 0.4 0.2
v 0.3 0.7 0.2
v 0.3 1 0.2
v -0.3 0.5 0.1
v -0.3 0.7 0.1
v -0.2 0.4 0.1
v -0.2 0.5 0.1
v -0.2 0.6 0.1
v -0.2 0.7 0.1
v -0.2 0.8 0.1
v -0.2 1.2 0.1
v -0.2 1.3 0.1
v -0.1 0.4 0.1
v -0.1 0.6 0.1
v -0.1 0.7 0.1
v -0.1 0.8 0.1
v -0.1 0.9 0.1
v 0 0.4 0.1
v 0 0.6 0.1
v 0 0.9 0.1
v 0 1.1 0.1
v 0.1 0.4 0.1
v 0.1 0.5 0.1
v 0.1 0.6 0.1
v 0.1 0.7 0.1
v 0.1 0.8 0.1
v 0.1 0.9 0.1
v 0.2 0.4 0.1
v 0.2 0.5 0.1
v 0.2 0.6 0.1
v 0.2 0.7 0.1
v 0.2 0.8 0.1
v 0.2 0.9 0.1
v 0.2 1.1 0.1
v 0.2 1.2 0.1
v 0.2 1.3 0.1
v 0.3 0.5 0.1
v 0.3 0.7 0.1
v -0.5 0.3 -2.98023e-08
v -0.5 0.4 -2.98023e-08
v -0.4 0.3 -2.98023e-08
v -0.4 0.4 -2.98023e-08
v -0.4 0.5 -2.98023e-08
v -0.3 0.4 -2.98023e-08
v -0.3 0.5 -2.98023e-08
v -0.3 0.7 -2.98023e-08
v -0.3 0.8 -2.98023e-08
v -0.2 0 -2.98023e-08
v -0.2 0.1 -2.98023e-08
v -0.2 0.2 -2.98023e-08
v -0.2 0.3 -2.98023e-08
v -0.2 0.7 -2.98023e-08
v -0.2 0.8 -2.98023e-08
v -0.1 0 -2.98023e-08
v -0.1 0.1 -2.98023e-08
v -0.1 0.2 -2.98023e-08
v -0.1 0.3 -2.98023e-08
v 0.1 0 -2.98023e-08
v 0.1 0.1 -2.98023e-08
v 0.1 0.2 -2.98023e-08
v 0.1 0.3 -2.98023e-08
v 0.2 0 -2.98023e-08
v 0.2 0.1 -2.98023e-08
v 0.2 0.2 -2.98023e-08
v 0.2 0.3 -2.98023e-08
v 0.2 0.7 -2.98023e-08
v 0.2 0.8 -2.98023e-08
v 0.3 0.3 -2.98023e-08
v 0.3 0.4 -2.98023e-08
v 0.3 0.5 -2.98023e-08
v 0.3 0.6 -2.98023e-08
v 0.3 0.7 -2.98023e-08
v 0.3 0.8 -2.98023e-08
v 0.4 0.3 -2.98023e-08
v 0.4 0.4 -2.98023e-08
v 0.4 0.5 -2.98023e-08
v 0.4 0.6 -2.98023e-08
v 0.5 0.4 -2.98023e-08
v 0.5 0.5 -2.98023e-08
v 0.6 0.6 -2.98023e-08
v 0.6 0.7 -2.98023e-08
v 0.7 0.6 -2.98023e-08
v 0.7 0.7 -2.98023e-08
v 0.3 0.7 -0.1
v 0.3 0.8 -0.1
v 0.4 0.7 -0.1
v 0.4 0.8 -0.1
v 0.7 0.5 -0.1
v 0.7 0.6 -0.1
v 0.8 0.5 -0.1
v 0.8 0.6 -0.1
v 0.4 0.6 -0.2
v 0.4 0.7 -0.2
v 0.5 0.6 -0.2
v 0.5 0.7 -0.2
v 0.6 0.4 -0.2
v 0.6 0.5 -0.2
v 0.7 0.4 -0.2
v 0.7 0.5 -0.2
v 0.2 0.4 -0.3
v 0.2 0.5 -0.3
v 0.3 0.3 -0.3
v 0.3 0.4 -0.3
v 0.3 0.5 -0.3
v 0.3 0.6 -0.3
v 0.4 0.3 -0.3
v 0.4 0.4 -0.3
v 0.4 0.5 -0.3
v 0.4 0.6 -0.3
v 0.5 0.3 -0.3
v 0.5 0.4 -0.3
v 0.5 0.5 -0.3
v 0.6 0.3 -0.3
v 0.6 0.4 -0.3
v 0 1 0.2
v 0 1.1 0.2
v 0.2 1 0.2
v 0.2 1.1 0.2
v -0.3 0.7 0.1
v -0.3 0.8 0.1
v -0.2 0.7 0.1
v -0.2 0.8 0.1
v 0.2 0.7 0.1
v 0.2 0.8 0.1
v 0.3 0.7 0.1
v 0.3 0.8 0.1
v 0.2 0.5 -2.98023e-08
v 0.2 0.6 -2.98023e-08
v 0.3 0.5 -2.98023e-08
v 0.3 0.6 -2.98023e-08
v -0.5 0.3 -0.1
v -0.5 0.4 -0.1
v -0.4 0.3 -0.1
v -0.4 0.4 -0.1
v -0.4 0.5 -0.1
v -0.3 0.4 -0.1
v -0.3 0.5 -0.1
v -0.3 0.6 -0.1
v -0.2 0 -0.1
v -0.2 0.1 -0.1
v -0.2 0.2 -0.1
v -0.2 0.3 -0.1
v -0.2 0.5 -0.1
v -0.2 0.6 -0.1
v -0.1 0 -0.1
v -0.1 0.1 -0.1
v -0.1 0.2 -0.1
v -0.1 0.3 -0.1
v 0.1 0 -0.1
v 0.1 0.1 -0.1
v 0.1 0.2 -0.1
v 0.1 0.3 -0.1
v 0.2 0 -0.1
v 0.2 0.1 -0.1
v 0.2 0.2 -0.1
v 0.2 0.3 -0.1
v 0.3 0.3 -0.1
v 0.3 0.4 -0.1
v 0.3 0.5 -0.1
v 0.3 0.6 -0.1
v 0.4 0.3 -0.1
v 0.4 0.4 -0.1
v 0.4 0.5 -0.1
v 0.4 0.6 -0.1
v 0.5 0.4 -0.1
v 0.5 0.5 -0.1
v 0.6 0.6 -0.1
v 0.6 0.7 -0.1
v 0.7 0.6 -0.1
v 0.7 0.7 -0.1
v -0.3 0.6 -0.2
v -0.3 0.7 -0.2
v -0.2 0.4 -0.2
v -0.2 0.6 -0.2
v -0.2 0.7 -0.2
v -0.2 1.2 -0.2
v -0.2 1.3 -0.2
v -0.1 0.4 -0.2
v -0.1 0.6 -0.2
v 0 0.4 -0.2
v 0 0.6 -0.2
v 0.1 0.4 -0.2
v 0.1 0.5 -0.2
v 0.1 0.6 -0.2
v 0.2 0.4 -0.2
v 0.2 0.5 -0.2
v 0.2 1.2 -0.2
v 0.2 1.3 -0.2
v 0.3 0.7 -0.2
v 0.3 0.8 -0.2
v 0.4 0.7 -0.2
v 0.4 0.8 -0.2
v 0.7 0.5 -0.2
v 0.7 0.6 -0.2
v 0.8 0.5 -0.2
v 0.8 0.6 -0.2
v -0.3 0.3 -0.3
v -0.3 0.4 -0.3
v -0.3 0.7 -0.3
v -0.3 0.8 -0.3
v -0.3 0.9 -0.3
v -0.3 1.2 -0.3
v -0.2 0.3 -0.3
v -0.2 0.4 -0.3
v -0.2 0.6 -0.3
v -0.2 0.7 -0.3
v -0.2 0.8 -0.3
v -0.2 0.9 -0.3
v -0.2 1.1 -0.3
v -0.1 0.3 -0.3
v -0.1 0.4 -0.3
v -0.1 0.6 -0.3
v -0.1 0.7 -0.3
v 0 0.3 -0.3
v 0 0.4 -0.3
v 0.1 0.3 -0.3
v 0.1 0.4 -0.3
v 0.1 0.6 -0.3
v 0.1 0.7 -0.3
v 0.2 0.3 -0.3
v 0.2 0.4 -0.3
v 0.2 0.6 -0.3
v 0.2 0.7 -0.3
v 0.2 0.8 -0.3
v 0.2 0.9 -0.3
v 0.2 1.1 -0.3
v 0.3 0.3 -0.3
v 0.3 0.4 -0.3
v 0.3 0.7 -0.3
v 0.3 0.8 -0.3
v 0.3 0.9 -0.3
v 0.3 1.2 -0.3
v 0.4 0.6 -0.3
v 0.4 0.7 -0.3
v 0.5 0.6 -0.3
v 0.5 0.7 -0.3
v 0.6 0.4 -0.3
v 0.6 0.5 -0.3
v 0.7 0.4 -0.3
v 0.7 0.5 -0.3
v -0.2 0.7 -0.4
v -0.2 1.1 -0.4
v -0.1 0.6 -0.4
v -0.1 0.7 -0.4
v -0.1 1 -0.4
v 0.1 0.5 -0.4
v 0.1 0.6 -0.4
v 0.1 0.7 -0.4
v 0.1 0.8 -0.4
v 0.2 0.4 -0.4
v 0.2 0.5 -0.4
v 0.2 0.6 -0.4
v 0.2 0.7 -0.4
v 0.2 0.8 -0.4
v 0.2 1 -0.4
v 0.2 1.1 -0.4
v 0.3 0.3 -0.4
v 0.3 0.4 -0.4
v 0.3 0.5 -0.4
v 0.3 0.6 -0.4
v 0.3 0.7 -0.4
v 0.4 0.3 -0.4
v 0.4 0.4 -0.4
v 0.4 0.5 -0.4
v 0.4 0.6 -0.4
v 0.5 0.3 -0.4
v 0.5 0.4 -0.4
v 0.5 0.5 -0.4
v 0.6 0.3 -0.4
v 0.6 0.4 -0.4
v -0.1 0.7 -0.5
v -0.1 1 -0.5
v 0.1 0.7 -0.5
v 0.1 0.8 -0.5
v 0.1 0.9 -0.5
v 0.2 0.8 -0.5
v 0.2 0.9 -0.5
v 0.2 1 -0.5
v -0.2 0 -2.98023e-08
v -0.1 0 -2.98023e-08
v 0.1 0 -2.98023e-08
v 0.2 0 -2.98023e-08
v -0.2 0 -0.1
v -0.1 0 -0.1
v 0.1 0 -0.1
v 0.2 0 -0.1
v -0.3 0.3 0.2
v -0.2 0.3 0.2
v -0.1 0.3 0.2
v 0 0.3 0.2
v 0.1 0.3 0.2
v 0.2 0.3 0.2
v 0.3 0.3 0.2
v -0.3 0.3 0.1
v -0.2 0.3 0.1
v 0.2 0.3 0.1
v 0.3 0.3 0.1
v -0.5 0.3 -2.98023e-08
v -0.4 0.3 -2.98023e-08
v -0.3 0.3 -2.98023e-08
v -0.2 0.3 -2.98023e-08
v -0.1 0.3 -2.98023e-08
v 0.1 0.3 -2.98023e-08
v 0.2 0.3 -2.98023e-08
v 0.3 0.3 -2.98023e-08
v 0.4 0.3 -2.98023e-08
v -0.5 0.3 -0.1
v -0.4 0.3 -0.1
v -0.3 0.3 -0.1
v -0.2 0.3 -0.1
v -0.1 0.3 -0.1
v 0.1 0.3 -0.1
v 0.2 0.3 -0.1
v 0.3 0.3 -0.1
v 0.4 0.3 -0.1
v -0.3 0.3 -0.2
v -0.2 0.3 -0.2
v 0.2 0.3 -0.2
v 0.3 0.3 -0.2
v -0.3 0.3 -0.3
v -0.2 0.3 -0.3
v -0.1 0.3 -0.3
v 0 0.3 -0.3
v 0.1 0.3 -0.3
v 0.2 0.3 -0.3
v 0.3 0.3 -0.3
v 0.4 0.3 -0.3
v 0.5 0.3 -0.3
v 0.6 0.3 -0.3
v 0.3 0.3 -0.4
v 0.4 0.3 -0.4
v 0.5 0.3 -0.4
v 0.6 0.3 -0.4
v -0.4 0.4 -2.98023e-08
v -0.3 0.4 -2.98023e-08
v 0.4 0.4 -2.98023e-08
v 0.5 0.4 -2.98023e-08
v -0.4 0.4 -0.1
v -0.3 0.4 -0.1
v 0.4 0.4 -0.1
v 0.5 0.4 -0.1
v 0.6 0.4 -0.2
v 0.7 0.4 -0.2
v 0.2 0.4 -0.3
v 0.3 0.4 -0.3
v 0.4 0.4 -0.3
v 0.5 0.4 -0.3
v 0.6 0.4 -0.3
v 0.7 0.4 -0.3
v 0.2 0.4 -0.4
v 0.3 0.4 -0.4
v 0.4 0.4 -0.4
v 0.5 0.4 -0.4
v -0.3 0.5 0.1
v -0.2 0.5 0.1
v 0.2 0.5 0.1
v 0.3 0.5 0.1
v -0.3 0.5 -2.98023e-08
v -0.2 0.5 -2.98023e-08
v 0.2 0.5 -2.98023e-08
v 0.3 0.5 -2.98023e-08
v 0.4 0.5 -2.98023e-08
v -0.3 0.5 -0.1
v -0.2 0.5 -0.1
v 0.3 0.5 -0.1
v 0.4 0.5 -0.1
v 0.7 0.5 -0.1
v 0.8 0.5 -0.1
v 0.1 0.5 -0.2
v 0.2 0.5 -0.2
v 0.7 0.5 -0.2
v 0.8 0.5 -0.2
v 0.1 0.5 -0.3
v 0.2 0.5 -0.3
v 0.3 0.5 -0.3
v 0.4 0.5 -0.3
v 0.1 0.5 -0.4
v 0.2 0.5 -0.4
v 0.3 0.5 -0.4
v 0.4 0.5 -0.4
v -0.2 0.6 0.2
v -0.1 0.6 0.2
v 0.1 0.6 0.2
v 0.2 0.6 0.2
v -0.2 0.6 0.1
v -0.1 0.6 0.1
v 0.1 0.6 0.1
v 0.2 0.6 0.1
v 0.2 0.6 -2.98023e-08
v 0.3 0.6 -2.98023e-08
v 0.6 0.6 -2.98023e-08
v 0.7 0.6 -2.98023e-08
v -0.3 0.6 -0.1
v -0.2 0.6 -0.1
v 0.2 0.6 -0.1
v 0.3 0.6 -0.1
v 0.6 0.6 -0.1
v 0.7 0.6 -0.1
v -0.3 0.6 -0.2
v -0.2 0.6 -0.2
v -0.1 0.6 -0.2
v 0 0.6 -0.2
v 0.1 0.6 -0.2
v 0.2 0.6 -0.2
v 0.4 0.6 -0.2
v 0.5 0.6 -0.2
v -0.2 0.6 -0.3
v -0.1 0.6 -0.3
v 0.1 0.6 -0.3
v 0.2 0.6 -0.3
v 0.3 0.6 -0.3
v 0.4 0.6 -0.3
v 0.5 0.6 -0.3
v -0.1 0.6 -0.4
v 0.1 0.6 -0.4
v 0.2 0.6 -0.4
v 0.3 0.6 -0.4
v -0.3 0.7 0.2
v -0.2 0.7 0.2
v 0.2 0.7 0.2
v 0.3 0.7 0.2
v -0.3 0.7 0.1
v -0.2 0.7 0.1
v 0.2 0.7 0.1
v 0.3 0.7 0.1
v 0.3 0.7 -0.1
v 0.4 0.7 -0.1
v -0.3 0.7 -0.2
v -0.2 0.7 -0.2
v 0.3 0.7 -0.2
v 0.4 0.7 -0.2
v -0.3 0.7 -0.3
v -0.2 0.7 -0.3
v -0.1 0.7 -0.3
v 0.1 0.7 -0.3
v 0.2 0.7 -0.3
v -0.2 0.7 -0.4
v -0.1 0.7 -0.4
v 0.1 0.7 -0.4
v 0.2 0.7 -0.4
v -0.1 0.7 -0.5
v 0.1 0.7 -0.5
v -0.2 0.8 0.2
v -0.1 0.8 0.2
v -0.3 0.8 0.1
v -0.2 0.8 0.1
v -0.1 0.8 0.1
v 0.2 0.8 0.1
v 0.3 0.8 0.1
v -0.3 0.8 -2.98023e-08
v -0.2 0.8 -2.98023e-08
v 0.2 0.8 -2.98023e-08
v 0.3 0.8 -2.98023e-08
v 0.1 0.8 -0.4
v 0.2 0.8 -0.4
v 0.1 0.8 -0.5
v 0.2 0.8 -0.5
v -0.2 0.9 0.3
v 0 0.9 0.3
v -0.2 0.9 0.2
v -0.1 0.9 0.2
v -0.1 0.9 0.1
v 0 0.9 0.1
v 0 1 0.3
v 0.3 1 0.3
v 0 1 0.2
v 0.2 1 0.2
v 0.3 1 0.2
v 0 1.1 0.2
v 0.2 1.1 0.2
v 0 1.1 0.1
v 0.2 1.1 0.1
v -0.3 0.4 0.2
v -0.2 0.4 0.2
v -0.1 0.4 0.2
v 0 0.4 0.2
v 0.1 0.4 0.2
v 0.2 0.4 0.2
v 0.3 0.4 0.2
v -0.3 0.4 0.1
v -0.2 0.4 0.1
v -0.1 0.4 0.1
v 0 0.4 0.1
v 0.1 0.4 0.1
v 0.2 0.4 0.1
v 0.3 0.4 0.1
v -0.5 0.4 -2.98023e-08
v -0.4 0.4 -2.98023e-08
v -0.3 0.4 -2.98023e-08
v -0.2 0.4 -2.98023e-08
v 0.2 0.4 -2.98023e-08
v 0.3 0.4 -2.98023e-08
v 0.4 0.4 -2.98023e-08
v -0.5 0.4 -0.1
v -0.4 0.4 -0.1
v -0.3 0.4 -0.1
v -0.2 0.4 -0.1
v 0.2 0.4 -0.1
v 0.3 0.4 -0.1
v 0.4 0.4 -0.1
v -0.3 0.4 -0.2
v -0.2 0.4 -0.2
v -0.1 0.4 -0.2
v 0 0.4 -0.2
v 0.1 0.4 -0.2
v 0.2 0.4 -0.2
v 0.3 0.4 -0.2
v -0.3 0.4 -0.3
v -0.2 0.4 -0.3
v -0.1 0.4 -0.3
v 0 0.4 -0.3
v 0.1 0.4 -0.3
v 0.2 0.4 -0.3
v 0.3 0.4 -0.3
v 0.4 0.4 -0.3
v 0.5 0.4 -0.3
v 0.6 0.4 -0.3
v 0.3 0.4 -0.4
v 0.4 0.4 -0.4
v 0.5 0.4 -0.4
v 0.6 0.4 -0.4
v -0.4 0.5 -2.98023e-08
v -0.3 0.5 -2.98023e-08
v 0.4 0.5 -2.98023e-08
v 0.5 0.5 -2.98023e-08
v -0.4 0.5 -0.1
v -0.3 0.5 -0.1
v 0.4 0.5 -0.1
v 0.5 0.5 -0.1
v 0.6 0.5 -0.2
v 0.7 0.5 -0.2
v 0.2 0.5 -0.3
v 0.3 0.5 -0.3
v 0.4 0.5 -0.3
v 0.5 0.5 -0.3
v 0.6 0.5 -0.3
v 0.7 0.5 -0.3
v 0.2 0.5 -0.4
v 0.3 0.5 -0.4
v 0.4 0.5 -0.4
v 0.5 0.5 -0.4
v 0.3 0.6 -2.98023e-08
v 0.4 0.6 -2.98023e-08
v 0.3 0.6 -0.1
v 0.4 0.6 -0.1
v 0.7 0.6 -0.1
v 0.8 0.6 -0.1
v 0.7 0.6 -0.2
v 0.8 0.6 -0.2
v 0.1 0.6 -0.3
v 0.2 0.6 -0.3
v 0.3 0.6 -0.3
v 0.4 0.6 -0.3
v 0.1 0.6 -0.4
v 0.2 0.6 -0.4
v 0.3 0.6 -0.4
v 0.4 0.6 -0.4
v -0.2 0.7 0.2
v -0.1 0.7 0.2
v 0.1 0.7 0.2
v 0.2 0.7 0.2
v -0.3 0.7 0.1
v -0.2 0.7 0.1
v -0.1 0.7 0.1
v 0.1 0.7 0.1
v 0.2 0.7 0.1
v 0.3 0.7 0.1
v -0.3 0.7 -2.98023e-08
v -0.2 0.7 -2.98023e-08
v 0.2 0.7 -2.98023e-08
v 0.3 0.7 -2.98023e-08
v 0.6 0.7 -2.98023e-08
v 0.7 0.7 -2.98023e-08
v 0.6 0.7 -0.1
v 0.7 0.7 -0.1
v 0.4 0.7 -0.2
v 0.5 0.7 -0.2
v 0.2 0.7 -0.3
v 0.3 0.7 -0.3
v 0.4 0.7 -0.3
v 0.5 0.7 -0.3
v 0.2 0.7 -0.4
v 0.3 0.7 -0.4
v 0.3 0.8 -0.1
v 0.4 0.8 -0.1
v 0.3 0.8 -0.2
v 0.4 0.8 -0.2
v -0.1 1 -0.4
v 0.2 1 -0.4
v -0.1 1 -0.5
v 0.2 1 -0.5
v -0.2 1.1 0.3
v -0.1 1.1 0.3
v -0.2 1.1 0.2
v -0.1 1.1 0.2
v -0.2 1.1 -0.3
v 0.2 1.1 -0.3
v -0.2 1.1 -0.4
v 0.2 1.1 -0.4
v -0.1 1.2 0.3
v 0.2 1.2 0.3
v 0.3 1.2 0.3
v -0.3 1.2 0.2
v -0.1 1.2 0.2
v 0.2 1.2 0.2
v 0.3 1.2 0.2
v -0.3 1.2 0.1
v -0.2 1.2 0.1
v 0.2 1.2 0.1
v 0.3 1.2 0.1
v -0.3 1.2 -2.98023e-08
v -0.2 1.2 -2.98023e-08
v 0.2 1.2 -2.98023e-08
v 0.3 1.2 -2.98023e-08
v -0.3 1.2 -0.1
v -0.2 1.2 -0.1
v 0.2 1.2 -0.1
v 0.3 1.2 -0.1
v -0.3 1.2 -0.2
v -0.2 1.2 -0.2
v 0.2 1.2 -0.2
v 0.3 1.2 -0.2
v -0.3 1.2 -0.3
v 0.3 1.2 -0.3
v -0.2 1.3 0.1
v 0.2 1.3 0.1
v -0.2 1.3 -0.2
v 0.2 1.3 -0.2

# faces
f 3/2/1 2/2/1 1/2/1
f 4/2/1 2/2/1 3/2/1
f 7/5/1 6/5/1 5/5/1
f 8/5/1 6/5/1 7/5/1
f 15/5/1 10/5/1 9/5/1
f 16/4/1 11/4/1 10/4/1
f 16/5/1 10/5/1 15/5/1
f 17/5/1 12/5/1 11/5/1
f 17/4/1 11/4/1 16/4/1
f 18/4/1 13/4/1 12/4/1
f 18/5/1 12/5/1 17/5/1
f 19/5/1 14/5/1 13/5/1
f 19/4/1 13/4/1 18/4/1
f 20/5/1 14/5/1 19/5/1
f 24/1/1 22/1/1 21/1/1
f 24/2/1 23/2/1 22/2/1
f 25/2/1 23/2/1 24/2/1
f 28/1/1 24/1/1 21/1/1
f 29/5/1 25/5/1 24/5/1
f 29/1/1 24/1/1 28/1/1
f 30/1/1 26/1/1 25/1/1
f 30/5/1 25/5/1 29/5/1
f 31/1/1 26/1/1 30/1/1
f 33/1/1 28/1/1 27/1/1
f 34/1/1 32/1/1 31/1/1
f 34/1/1 31/1/1 30/1/1
f 34/1/1 30/1/1 29/1/1
f 35/1/1 32/1/1 34/1/1
f 36/1/1 32/1/1 35/1/1
f 37/1/1 34/1/1 33/1/1
f 37/1/1 35/1/1 34/1/1
f 37/8/1 36/8/1 35/8/1
f 38/8/1 36/8/1 37/8/1
f 39/1/1 37/1/1 33/1/1
f 39/1/1 38/1/1 37/1/1
f 40/1/1 38/1/1 39/1/1
f 41/1/1 33/1/1 27/1/1
f 41/1/1 39/1/1 33/1/1
f 42/8/1 40/8/1 39/8/1
f 42/1/1 39/1/1 41/1/1
f 43/1/1 38/1/1 40/1/1
f 43/8/1 40/8/1 42/8/1
f 44/1/1 38/1/1 43/1/1
f 45/1/1 41/1/1 27/1/1
f 46/8/1 42/8/1 41/8/1
f 46/1/1 41/1/1 45/1/1
f 47/1/1 43/1/1 42/1/1
f 47/8/1 42/8/1 46/8/1
f 48/8/1 44/8/1 43/8/1
f 48/1/1 43/1/1 47/1/1
f 49/1/1 38/1/1 44/1/1
f 49/8/1 44/8/1 48/8/1
f 50/1/1 38/1/1 49/1/1
f 53/6/1 52/6/1 51/6/1
f 54/6/1 52/6/1 53/6/1
f 55/8/1 54/8/1 53/8/1
f 56/8/1 54/8/1 55/8/1
f 57/2/1 56/2/1 55/2/1
f 58/2/1 56/2/1 57/2/1
f 63/4/1 60/4/1 59/4/1
f 64/5/1 61/5/1 60/5/1
f 64/4/1 60/4/1 63/4/1
f 65/4/1 62/4/1 61/4/1
f 65/5/1 61/5/1 64/5/1
f 68/4/1 62/4/1 65/4/1
f 69/4/1 62/4/1 68/4/1
f 71/1/1 67/1/1 66/1/1
f 72/1/1 67/1/1 71/1/1
f 74/1/1 70/1/1 69/1/1
f 75/1/1 70/1/1 74/1/1
f 77/1/1 73/1/1 72/1/1
f 78/1/1 73/1/1 77/1/1
f 79/1/1 76/1/1 75/1/1
f 82/1/1 76/1/1 79/1/1
f 83/1/1 81/1/1 80/1/1
f 84/1/1 81/1/1 83/1/1
f 85/1/1 76/1/1 82/1/1
f 86/1/1 76/1/1 85/1/1
f 91/1/1 88/1/1 87/1/1
f 91/1/1 90/1/1 89/1/1
f 91/1/1 89/1/1 88/1/1
f 92/1/1 90/1/1 91/1/1
f 95/1/1 94/1/1 93/1/1
f 96/1/1 94/1/1 95/1/1
f 98/1/1 97/1/1 96/1/1
f 99/1/1 97/1/1 98/1/1
f 102/1/1 101/1/1 100/1/1
f 103/1/1 101/1/1 102/1/1
f 106/6/1 105/6/1 104/6/1
f 107/6/1 105/6/1 106/6/1
f 108/8/1 107/8/1 106/8/1
f 109/8/1 107/8/1 108/8/1
f 110/2/1 109/2/1 108/2/1
f 111/2/1 109/2/1 110/2/1
f 117/4/1 113/4/1 112/4/1
f 118/1/1 114/1/1 113/1/1
f 118/4/1 113/4/1 117/4/1
f 119/1/1 114/1/1 118/1/1
f 120/1/1 116/1/1 115/1/1
f 121/1/1 116/1/1 120/1/1
f 124/1/1 123/1/1 122/1/1
f 125/1/1 123/1/1 124/1/1
f 130/1/1 127/1/1 126/1/1
f 131/1/1 127/1/1 130/1/1
f 132/1/1 129/1/1 128/1/1
f 133/1/1 132/1/1 128/1/1
f 134/1/1 133/1/1 128/1/1
f 135/1/1 133/1/1 134/1/1
f 136/1/1 133/1/1 135/1/1
f 139/1/1 138/1/1 137/1/1
f 140/1/1 138/1/1 139/1/1
f 145/5/1 142/5/1 141/5/1
f 146/5/1 142/5/1 145/5/1
f 147/1/1 144/1/1 143/1/1
f 148/1/1 144/1/1 147/1/1
f 153/2/1 150/2/1 149/2/1
f 154/2/1 150/2/1 153/2/1
f 155/1/1 152/1/1 151/1/1
f 156/1/1 152/1/1 155/1/1
f 159/1/1 158/1/1 157/1/1
f 160/1/1 158/1/1 159/1/1
f 163/1/1 162/1/1 161/1/1
f 164/1/1 162/1/1 163/1/1
f 167/1/1 166/1/1 165/1/1
f 168/1/1 166/1/1 167/1/1
f 171/1/1 170/1/1 169/1/1
f 172/1/1 170/1/1 171/1/1
f 175/1/1 174/1/1 173/1/1
f 176/1/1 174/1/1 175/1/1
f 177/2/2 178/2/2 179/2/2
f 179/2/2 178/2/2 180/2/2
f 181/5/2 182/5/2 183/5/2
f 183/5/2 182/5/2 184/5/2
f 185/1/2 186/1/2 187/1/2
f 187/1/2 186/1/2 188/1/2
f 189/6/2 190/6/2 191/6/2
f 191/6/2 190/6/2 192/6/2
f 191/8/2 192/8/2 193/8/2
f 193/8/2 192/8/2 194/8/2
f 193/2/2 194/2/2 195/2/2
f 195/2/2 194/2/2 196/2/2
f 197/1/2 198/1/2 199/1/2
f 199/1/2 198/1/2 200/1/2
f 201/1/2 202/1/2 203/1/2
f 203/1/2 202/1/2 204/1/2
f 205/1/2 206/1/2 207/1/2
f 207/1/2 206/1/2 208/1/2
f 208/1/2 206/1/2 209/1/2
f 209/1/2 206/1/2 210/1/2
f 211/1/2 212/1/2 213/1/2
f 213/1/2 212/1/2 214/1/2
f 214/1/2 215/1/2 216/1/2
f 216/1/2 215/1/2 217/1/2
f 218/6/2 219/6/2 220/6/2
f 220/6/2 219/6/2 221/6/2
f 220/8/2 221/8/2 222/8/2
f 222/8/2 221/8/2 223/8/2
f 222/2/2 223/2/2 224/2/2
f 224/2/2 223/2/2 225/2/2
f 226/5/2 227/5/2 230/5/2
f 227/4/2 228/4/2 231/4/2
f 230/5/2 227/5/2 231/5/2
f 228/5/2 229/5/2 232/5/2
f 231/4/2 228/4/2 232/4/2
f 232/5/2 229/5/2 233/5/2
f 231/5/2 232/5/2 238/5/2
f 232/5/2 233/5/2 238/5/2
f 238/5/2 233/5/2 239/5/2
f 233/4/2 234/4/2 240/4/2
f 239/5/2 233/5/2 240/5/2
f 234/1/2 235/1/2 241/1/2
f 240/4/2 234/4/2 241/4/2
f 241/1/2 235/1/2 242/1/2
f 236/1/2 237/1/2 243/1/2
f 243/1/2 237/1/2 244/1/2
f 244/2/2 245/2/2 248/2/2
f 248/2/2 245/2/2 249/2/2
f 246/1/2 247/1/2 250/1/2
f 250/1/2 247/1/2 251/1/2
f 250/8/2 251/8/2 253/8/2
f 251/8/2 252/8/2 253/8/2
f 253/8/2 252/8/2 254/8/2
f 253/1/2 254/1/2 255/1/2
f 255/1/2 254/1/2 256/1/2
f 253/1/2 255/1/2 257/1/2
f 257/1/2 255/1/2 258/1/2
f 259/1/2 260/1/2 263/1/2
f 261/1/2 262/1/2 263/1/2
f 260/1/2 261/1/2 263/1/2
f 263/1/2 262/1/2 264/1/2
f 265/4/2 266/4/2 271/4/2
f 266/5/2 267/5/2 272/5/2
f 271/4/2 266/4/2 272/4/2
f 272/5/2 267/5/2 273/5/2
f 268/5/2 269/5/2 274/5/2
f 269/4/2 270/4/2 275/4/2
f 274/5/2 269/5/2 275/5/2
f 275/4/2 270/4/2 276/4/2
f 276/1/2 277/1/2 280/1/2
f 280/1/2 277/1/2 281/1/2
f 278/1/2 279/1/2 282/1/2
f 278/1/2 282/1/2 287/1/2
f 282/5/2 283/5/2 288/5/2
f 287/1/2 282/1/2 288/1/2
f 284/1/2 285/1/2 289/1/2
f 288/5/2 283/5/2 289/5/2
f 283/1/2 284/1/2 289/1/2
f 289/1/2 285/1/2 290/1/2
f 290/1/2 285/1/2 291/1/2
f 291/1/2 285/1/2 292/1/2
f 286/1/2 287/1/2 293/1/2
f 288/1/2 289/1/2 294/1/2
f 294/1/2 289/1/2 295/1/2
f 290/1/2 291/1/2 296/1/2
f 296/1/2 291/1/2 297/1/2
f 294/1/2 295/1/2 298/1/2
f 293/1/2 294/1/2 298/1/2
f 296/8/2 297/8/2 298/8/2
f 295/1/2 296/1/2 298/1/2
f 298/8/2 297/8/2 299/8/2
f 286/1/2 293/1/2 301/1/2
f 293/1/2 298/1/2 301/1/2
f 298/1/2 299/1/2 301/1/2
f 301/1/2 299/1/2 302/1/2
f 302/1/2 299/1/2 303/1/2
f 300/1/2 301/1/2 304/1/2
f 301/1/2 302/1/2 304/1/2
f 304/1/2 302/1/2 305/1/2
f 305/1/2 302/1/2 306/1/2
f 302/8/2 303/8/2 307/8/2
f 306/1/2 302/1/2 307/1/2
f 303/1/2 299/1/2 308/1/2
f 307/8/2 303/8/2 308/8/2
f 308/1/2 299/1/2 309/1/2
f 304/8/2 305/8/2 310/8/2
f 305/1/2 306/1/2 311/1/2
f 310/8/2 305/8/2 311/8/2
f 306/8/2 307/8/2 312/8/2
f 311/1/2 306/1/2 312/1/2
f 307/1/2 308/1/2 313/1/2
f 312/8/2 307/8/2 313/8/2
f 308/8/2 309/8/2 314/8/2
f 313/1/2 308/1/2 314/1/2
f 309/1/2 299/1/2 315/1/2
f 314/8/2 309/8/2 315/8/2
f 315/1/2 299/1/2 316/1/2
f 317/2/2 318/2/2 321/2/2
f 321/2/2 318/2/2 322/2/2
f 319/1/2 320/1/2 323/1/2
f 323/1/2 320/1/2 324/1/2
f 325/5/2 326/5/2 329/5/2
f 329/5/2 326/5/2 330/5/2
f 327/1/2 328/1/2 331/1/2
f 331/1/2 328/1/2 332/1/2
f 333/1/2 334/1/2 335/1/2
f 335/1/2 334/1/2 336/1/2
f 337/2/2 338/2/2 341/2/2
f 341/2/2 338/2/2 342/2/2
f 339/1/2 340/1/2 343/1/2
f 343/1/2 340/1/2 344/1/2
f 345/1/2 346/1/2 347/1/2
f 347/1/2 346/1/2 348/1/2
f 349/1/2 350/1/2 351/1/2
f 351/1/2 350/1/2 352/1/2
f 353/1/2 354/1/2 355/1/2
f 355/1/2 354/1/2 356/1/2
f 357/1/2 358/1/2 359/1/2
f 359/1/2 358/1/2 360/1/2
f 361/1/2 362/1/2 363/1/2
f 363/1/2 362/1/2 364/1/2
f 367/1/3 366/1/3 365/1/3
f 369/1/3 367/1/3 365/1/3
f 369/1/3 368/1/3 367/1/3
f 370/1/3 368/1/3 369/1/3
f 371/1/3 368/1/3 370/1/3
f 372/1/3 368/1/3 371/1/3
f 373/1/3 371/1/3 370/1/3
f 374/8/3 372/8/3 371/8/3
f 374/1/3 371/1/3 373/1/3
f 375/8/3 372/8/3 374/8/3
f 380/5/3 377/5/3 376/5/3
f 381/5/3 377/5/3 380/5/3
f 383/1/3 379/1/3 378/1/3
f 384/1/3 379/1/3 383/1/3
f 385/1/3 379/1/3 384/1/3
f 386/1/3 379/1/3 385/1/3
f 387/4/3 381/4/3 380/4/3
f 388/4/3 381/4/3 387/4/3
f 389/1/3 383/1/3 382/1/3
f 390/1/3 383/1/3 389/1/3
f 391/1/3 385/1/3 384/1/3
f 392/1/3 385/1/3 391/1/3
f 393/1/3 379/1/3 386/1/3
f 394/1/3 379/1/3 393/1/3
f 395/5/3 388/5/3 387/5/3
f 396/5/3 388/5/3 395/5/3
f 397/4/3 396/4/3 395/4/3
f 398/4/3 396/4/3 397/4/3
f 401/5/3 398/5/3 397/5/3
f 402/5/3 398/5/3 401/5/3
f 403/1/3 400/1/3 399/1/3
f 404/1/3 400/1/3 403/1/3
f 406/4/3 402/4/3 401/4/3
f 407/4/3 402/4/3 406/4/3
f 408/1/3 405/1/3 404/1/3
f 409/1/3 405/1/3 408/1/3
f 413/1/3 411/1/3 410/1/3
f 414/1/3 411/1/3 413/1/3
f 415/1/3 411/1/3 414/1/3
f 419/4/3 413/4/3 412/4/3
f 419/4/3 414/4/3 413/4/3
f 420/4/3 414/4/3 419/4/3
f 421/1/3 416/1/3 415/1/3
f 422/1/3 416/1/3 421/1/3
f 424/5/3 420/5/3 419/5/3
f 425/4/3 421/4/3 420/4/3
f 425/5/3 420/5/3 424/5/3
f 426/2/3 423/2/3 422/2/3
f 426/2/3 422/2/3 421/2/3
f 428/4/3 425/4/3 424/4/3
f 429/4/3 425/4/3 428/4/3
f 430/4/3 421/4/3 425/4/3
f 430/4/3 425/4/3 429/4/3
f 431/2/3 426/2/3 421/2/3
f 431/4/3 421/4/3 430/4/3
f 432/2/3 426/2/3 431/2/3
f 433/1/3 427/1/3 426/1/3
f 433/2/3 426/2/3 432/2/3
f 434/5/3 429/5/3 428/5/3
f 435/4/3 430/4/3 429/4/3
f 435/5/3 429/5/3 434/5/3
f 436/4/3 430/4/3 435/4/3
f 437/2/3 432/2/3 431/2/3
f 438/7/3 433/7/3 432/7/3
f 438/2/3 432/2/3 437/2/3
f 439/1/3 427/1/3 433/1/3
f 439/7/3 433/7/3 438/7/3
f 440/1/3 427/1/3 439/1/3
f 441/1/3 418/1/3 417/1/3
f 442/1/3 418/1/3 441/1/3
f 443/1/3 436/1/3 435/1/3
f 443/1/3 437/1/3 436/1/3
f 444/1/3 437/1/3 443/1/3
f 447/2/3 446/2/3 445/2/3
f 448/2/3 446/2/3 447/2/3
f 450/5/3 449/5/3 448/5/3
f 451/5/3 449/5/3 450/5/3
f 458/1/3 453/1/3 452/1/3
f 459/1/3 453/1/3 458/1/3
f 460/6/3 455/6/3 454/6/3
f 461/8/3 456/8/3 455/8/3
f 461/6/3 455/6/3 460/6/3
f 462/2/3 457/2/3 456/2/3
f 462/8/3 456/8/3 461/8/3
f 463/2/3 457/2/3 462/2/3
f 468/6/3 465/6/3 464/6/3
f 469/8/3 466/8/3 465/8/3
f 469/6/3 465/6/3 468/6/3
f 470/2/3 467/2/3 466/2/3
f 470/8/3 466/8/3 469/8/3
f 471/2/3 467/2/3 470/2/3
f 478/1/3 473/1/3 472/1/3
f 479/1/3 473/1/3 478/1/3
f 480/2/3 475/2/3 474/2/3
f 481/2/3 475/2/3 480/2/3
f 482/5/3 477/5/3 476/5/3
f 483/5/3 477/5/3 482/5/3
f 484/2/3 482/2/3 481/2/3
f 485/2/3 482/2/3 484/2/3
f 488/1/3 487/1/3 486/1/3
f 489/1/3 487/1/3 488/1/3
f 492/1/3 491/1/3 490/1/3
f 493/1/3 491/1/3 492/1/3
f 496/1/3 495/1/3 494/1/3
f 497/1/3 495/1/3 496/1/3
f 500/1/3 499/1/3 498/1/3
f 501/1/3 499/1/3 500/1/3
f 504/1/3 503/1/3 502/1/3
f 505/1/3 503/1/3 504/1/3
f 509/1/3 507/1/3 506/1/3
f 510/1/3 507/1/3 509/1/3
f 512/1/3 509/1/3 508/1/3
f 513/1/3 509/1/3 512/1/3
f 514/1/3 511/1/3 510/1/3
f 515/1/3 511/1/3 514/1/3
f 517/1/3 514/1/3 513/1/3
f 518/1/3 514/1/3 517/1/3
f 519/1/3 517/1/3 516/1/3
f 520/1/3 517/1/3 519/1/3
f 521/1/4 522/1/4 523/1/4
f 523/1/4 522/1/4 524/1/4
f 525/1/4 526/1/4 527/1/4
f 527/1/4 526/1/4 528/1/4
f 529/1/4 530/1/4 531/1/4
f 531/1/4 530/1/4 532/1/4
f 533/1/4 534/1/4 535/1/4
f 535/1/4 534/1/4 536/1/4
f 537/2/4 538/2/4 539/2/4
f 539/2/4 538/2/4 540/2/4
f 540/5/4 541/5/4 542/5/4
f 542/5/4 541/5/4 543/5/4
f 543/2/4 544/2/4 549/2/4
f 549/2/4 544/2/4 550/2/4
f 545/6/4 546/6/4 551/6/4
f 546/8/4 547/8/4 552/8/4
f 551/6/4 546/6/4 552/6/4
f 547/2/4 548/2/4 553/2/4
f 552/8/4 547/8/4 553/8/4
f 553/2/4 548/2/4 554/2/4
f 555/6/4 556/6/4 559/6/4
f 556/8/4 557/8/4 560/8/4
f 559/6/4 556/6/4 560/6/4
f 557/2/4 558/2/4 561/2/4
f 560/8/4 557/8/4 561/8/4
f 561/2/4 558/2/4 562/2/4
f 563/2/4 564/2/4 567/2/4
f 567/2/4 564/2/4 568/2/4
f 565/5/4 566/5/4 569/5/4
f 569/5/4 566/5/4 570/5/4
f 568/2/4 569/2/4 571/2/4
f 571/2/4 569/2/4 572/2/4
f 573/1/4 574/1/4 575/1/4
f 575/1/4 574/1/4 576/1/4
f 577/1/4 578/1/4 580/1/4
f 580/1/4 578/1/4 581/1/4
f 579/4/4 580/4/4 584/4/4
f 584/4/4 580/4/4 585/4/4
f 584/5/4 585/5/4 586/5/4
f 586/5/4 585/5/4 587/5/4
f 586/4/4 587/4/4 588/4/4
f 588/4/4 587/4/4 589/4/4
f 589/4/4 587/4/4 590/4/4
f 588/5/4 589/5/4 591/5/4
f 591/5/4 589/5/4 592/5/4
f 582/1/4 583/1/4 593/1/4
f 593/1/4 583/1/4 594/1/4
f 595/1/4 596/1/4 597/1/4
f 597/1/4 596/1/4 598/1/4
f 599/1/4 600/1/4 601/1/4
f 601/1/4 600/1/4 602/1/4
f 603/5/4 604/5/4 609/5/4
f 609/5/4 604/5/4 610/5/4
f 605/1/4 606/1/4 612/1/4
f 606/8/4 607/8/4 613/8/4
f 612/1/4 606/1/4 613/1/4
f 607/1/4 608/1/4 614/1/4
f 613/8/4 607/8/4 614/8/4
f 614/1/4 608/1/4 615/1/4
f 609/4/4 610/4/4 616/4/4
f 616/4/4 610/4/4 617/4/4
f 611/1/4 612/1/4 618/1/4
f 618/1/4 612/1/4 619/1/4
f 616/5/4 617/5/4 620/5/4
f 620/5/4 617/5/4 621/5/4
f 620/4/4 621/4/4 622/4/4
f 622/4/4 621/4/4 623/4/4
f 622/5/4 623/5/4 626/5/4
f 626/5/4 623/5/4 627/5/4
f 624/1/4 625/1/4 628/1/4
f 628/1/4 625/1/4 629/1/4
f 615/1/4 608/1/4 632/1/4
f 626/4/4 627/4/4 633/4/4
f 633/4/4 627/4/4 634/4/4
f 629/1/4 630/1/4 635/1/4
f 630/8/4 631/8/4 636/8/4
f 635/1/4 630/1/4 636/1/4
f 631/1/4 632/1/4 637/1/4
f 636/8/4 631/8/4 637/8/4
f 632/1/4 608/1/4 638/1/4
f 637/1/4 632/1/4 638/1/4
f 639/1/4 640/1/4 641/1/4
f 641/1/4 640/1/4 642/1/4
f 643/1/4 644/1/4 645/1/4
f 645/1/4 644/1/4 646/1/4
f 647/1/4 648/1/4 650/1/4
f 650/1/4 648/1/4 651/1/4
f 649/1/4 650/1/4 653/1/4
f 653/1/4 650/1/4 654/1/4
f 652/1/4 653/1/4 657/1/4
f 657/1/4 653/1/4 658/1/4
f 654/1/4 655/1/4 659/1/4
f 659/1/4 655/1/4 660/1/4
f 651/1/4 648/1/4 661/1/4
f 661/1/4 648/1/4 662/1/4
f 656/1/4 657/1/4 664/1/4
f 664/1/4 657/1/4 665/1/4
f 658/1/4 659/1/4 666/1/4
f 666/1/4 659/1/4 667/1/4
f 663/1/4 664/1/4 668/1/4
f 668/1/4 664/1/4 669/1/4
f 665/1/4 666/1/4 670/1/4
f 670/1/4 666/1/4 671/1/4
f 669/1/4 670/1/4 673/1/4
f 673/1/4 670/1/4 674/1/4
f 672/1/4 673/1/4 675/1/4
f 675/1/4 673/1/4 676/1/4
f 677/1/4 678/1/4 679/1/4
f 679/1/4 678/1/4 680/1/4
f 680/1/4 678/1/4 681/1/4
f 680/8/4 681/8/4 682/8/4
f 681/1/4 678/1/4 683/1/4
f 682/8/4 681/8/4 683/8/4
f 683/1/4 678/1/4 684/1/4
f 689/6/5 686/6/5 685/6/5
f 690/6/5 686/6/5 689/6/5
f 691/6/5 688/6/5 687/6/5
f 692/6/5 688/6/5 691/6/5
f 700/5/5 694/5/5 693/5/5
f 701/4/5 695/4/5 694/4/5
f 701/5/5 694/5/5 700/5/5
f 702/4/5 699/4/5 698/4/5
f 702/5/5 698/5/5 697/5/5
f 703/4/5 699/4/5 702/4/5
f 706/4/5 701/4/5 700/4/5
f 707/4/5 695/4/5 701/4/5
f 707/4/5 701/4/5 706/4/5
f 708/5/5 696/5/5 695/5/5
f 708/4/5 695/4/5 707/4/5
f 709/4/5 697/4/5 696/4/5
f 709/5/5 702/5/5 697/5/5
f 709/5/5 703/5/5 702/5/5
f 710/5/5 703/5/5 709/5/5
f 711/5/5 703/5/5 710/5/5
f 713/2/5 705/2/5 704/2/5
f 714/2/5 705/2/5 713/2/5
f 715/5/5 707/5/5 706/5/5
f 716/5/5 707/5/5 715/5/5
f 717/5/5 696/5/5 708/5/5
f 718/4/5 709/4/5 696/4/5
f 719/4/5 711/4/5 710/4/5
f 720/2/5 712/2/5 711/2/5
f 720/4/5 711/4/5 719/4/5
f 721/2/5 712/2/5 720/2/5
f 722/4/5 716/4/5 715/4/5
f 722/4/5 717/4/5 716/4/5
f 723/4/5 717/4/5 722/4/5
f 724/5/5 720/5/5 719/5/5
f 724/5/5 719/5/5 718/5/5
f 725/5/5 720/5/5 724/5/5
f 726/5/5 723/5/5 722/5/5
f 727/4/5 717/4/5 723/4/5
f 727/5/5 723/5/5 726/5/5
f 728/5/5 696/5/5 717/5/5
f 728/4/5 717/4/5 727/4/5
f 729/4/5 718/4/5 696/4/5
f 729/5/5 696/5/5 728/5/5
f 730/5/5 724/5/5 718/5/5
f 730/4/5 718/4/5 729/4/5
f 731/4/5 725/4/5 724/4/5
f 731/5/5 724/5/5 730/5/5
f 732/4/5 725/4/5 731/4/5
f 736/1/5 733/1/5 732/1/5
f 737/1/5 733/1/5 736/1/5
f 738/1/5 735/1/5 734/1/5
f 739/1/5 735/1/5 738/1/5
f 744/5/5 741/5/5 740/5/5
f 745/5/5 741/5/5 744/5/5
f 746/2/5 743/2/5 742/2/5
f 747/2/5 743/2/5 746/2/5
f 754/1/5 749/1/5 748/1/5
f 755/1/5 749/1/5 754/1/5
f 756/1/5 751/1/5 750/1/5
f 757/1/5 751/1/5 756/1/5
f 758/1/5 753/1/5 752/1/5
f 759/1/5 753/1/5 758/1/5
f 764/1/5 761/1/5 760/1/5
f 765/1/5 761/1/5 764/1/5
f 766/1/5 763/1/5 762/1/5
f 767/1/5 763/1/5 766/1/5
f 769/2/5 765/2/5 764/2/5
f 770/2/5 765/2/5 769/2/5
f 771/5/5 768/5/5 767/5/5
f 772/5/5 768/5/5 771/5/5
f 777/1/5 774/1/5 773/1/5
f 778/1/5 774/1/5 777/1/5
f 779/4/5 776/4/5 775/4/5
f 780/4/5 776/4/5 779/4/5
f 783/1/5 780/1/5 779/1/5
f 784/1/5 780/1/5 783/1/5
f 785/1/5 782/1/5 781/1/5
f 786/1/5 782/1/5 785/1/5
f 791/1/5 788/1/5 787/1/5
f 792/1/5 788/1/5 791/1/5
f 793/1/5 790/1/5 789/1/5
f 794/1/5 790/1/5 793/1/5
f 801/5/5 796/5/5 795/5/5
f 802/5/5 796/5/5 801/5/5
f 803/1/5 798/1/5 797/1/5
f 804/1/5 798/1/5 803/1/5
f 805/1/5 800/1/5 799/1/5
f 806/1/5 800/1/5 805/1/5
f 810/1/5 802/1/5 801/1/5
f 813/1/5 809/1/5 808/1/5
f 813/1/5 807/1/5 806/1/5
f 813/1/5 808/1/5 807/1/5
f 814/1/5 809/1/5 813/1/5
f 815/1/5 809/1/5 814/1/5
f 816/1/5 802/1/5 810/1/5
f 817/1/5 802/1/5 816/1/5
f 818/1/5 812/1/5 811/1/5
f 819/1/5 812/1/5 818/1/5
f 820/1/5 815/1/5 814/1/5
f 821/1/5 815/1/5 820/1/5
f 822/1/5 817/1/5 816/1/5
f 823/1/5 817/1/5 822/1/5
f 828/1/5 825/1/5 824/1/5
f 829/1/5 825/1/5 828/1/5
f 830/1/5 827/1/5 826/1/5
f 831/1/5 827/1/5 830/1/5
f 836/1/5 833/1/5 832/1/5
f 837/1/5 833/1/5 836/1/5
f 838/1/5 835/1/5 834/1/5
f 839/1/5 835/1/5 838/1/5
f 843/1/5 840/1/5 839/1/5
f 844/1/5 840/1/5 843/1/5
f 845/1/5 842/1/5 841/1/5
f 846/1/5 842/1/5 845/1/5
f 847/1/5 845/1/5 844/1/5
f 848/1/5 845/1/5 847/1/5
f 852/1/5 850/1/5 849/1/5
f 853/1/5 850/1/5 852/1/5
f 856/1/5 852/1/5 851/1/5
f 857/1/5 852/1/5 856/1/5
f 858/1/5 855/1/5 854/1/5
f 859/1/5 855/1/5 858/1/5
f 862/8/5 861/8/5 860/8/5
f 863/8/5 861/8/5 862/8/5
f 866/1/5 865/1/5 864/1/5
f 867/1/5 865/1/5 866/1/5
f 868/1/5 865/1/5 867/1/5
f 869/1/5 865/1/5 868/1/5
f 872/1/5 871/1/5 870/1/5
f 873/1/5 871/1/5 872/1/5
f 874/1/5 871/1/5 873/1/5
f 877/1/5 876/1/5 875/1/5
f 878/1/5 876/1/5 877/1/5
f 879/5/6 880/5/6 886/5/6
f 880/4/6 881/4/6 887/4/6
f 886/5/6 880/5/6 887/5/6
f 881/5/6 882/5/6 888/5/6
f 887/4/6 881/4/6 888/4/6
f 882/4/6 883/4/6 889/4/6
f 888/5/6 882/5/6 889/5/6
f 883/5/6 884/5/6 890/5/6
f 889/4/6 883/4/6 890/4/6
f 884/4/6 885/4/6 891/4/6
f 890/5/6 884/5/6 891/5/6
f 891/4/6 885/4/6 892/4/6
f 886/4/6 887/4/6 895/4/6
f 895/4/6 887/4/6 896/4/6
f 891/5/6 892/5/6 897/5/6
f 897/5/6 892/5/6 898/5/6
f 893/2/6 894/2/6 900/2/6
f 900/2/6 894/2/6 901/2/6
f 895/5/6 896/5/6 902/5/6
f 902/5/6 896/5/6 903/5/6
f 897/4/6 898/4/6 904/4/6
f 898/2/6 899/2/6 905/2/6
f 904/4/6 898/4/6 905/4/6
f 905/2/6 899/2/6 906/2/6
f 902/4/6 903/4/6 907/4/6
f 907/4/6 903/4/6 908/4/6
f 904/5/6 905/5/6 912/5/6
f 912/5/6 905/5/6 913/5/6
f 907/5/6 908/5/6 914/5/6
f 908/4/6 909/4/6 915/4/6
f 914/5/6 908/5/6 915/5/6
f 909/5/6 910/5/6 916/5/6
f 915/4/6 909/4/6 916/4/6
f 910/4/6 911/4/6 917/4/6
f 916/5/6 910/5/6 917/5/6
f 911/5/6 912/5/6 918/5/6
f 917/4/6 911/4/6 918/4/6
f 912/4/6 913/4/6 919/4/6
f 918/5/6 912/5/6 919/5/6
f 919/4/6 913/4/6 920/4/6
f 920/1/6 921/1/6 924/1/6
f 924/1/6 921/1/6 925/1/6
f 922/1/6 923/1/6 926/1/6
f 926/1/6 923/1/6 927/1/6
f 928/5/6 929/5/6 932/5/6
f 932/5/6 929/5/6 933/5/6
f 930/2/6 931/2/6 934/2/6
f 934/2/6 931/2/6 935/2/6
f 936/1/6 937/1/6 942/1/6
f 942/1/6 937/1/6 943/1/6
f 938/1/6 939/1/6 944/1/6
f 944/1/6 939/1/6 945/1/6
f 940/1/6 941/1/6 946/1/6
f 946/1/6 941/1/6 947/1/6
f 948/5/6 949/5/6 950/5/6
f 950/5/6 949/5/6 951/5/6
f 952/1/6 953/1/6 954/1/6
f 954/1/6 953/1/6 955/1/6
f 956/1/6 957/1/6 960/1/6
f 960/1/6 957/1/6 961/1/6
f 958/1/6 959/1/6 962/1/6
f 962/1/6 959/1/6 963/1/6
f 964/1/6 965/1/6 969/1/6
f 969/1/6 965/1/6 970/1/6
f 966/1/6 967/1/6 971/1/6
f 971/1/6 967/1/6 972/1/6
f 968/1/6 969/1/6 974/1/6
f 974/1/6 969/1/6 975/1/6
f 972/1/6 973/1/6 976/1/6
f 976/1/6 973/1/6 977/1/6
f 978/1/6 979/1/6 980/1/6
f 980/1/6 979/1/6 981/1/6
f 982/1/6 983/1/6 986/1/6
f 986/1/6 983/1/6 987/1/6
f 984/1/6 985/1/6 988/1/6
f 988/1/6 985/1/6 989/1/6
f 990/1/6 991/1/6 992/1/6
f 992/1/6 991/1/6 993/1/6
f 994/1/6 995/1/6 996/1/6
f 996/1/6 995/1/6 997/1/6
f 998/1/6 999/1/6 1000/1/6
f 1000/1/6 999/1/6 1001/1/6
f 1002/1/6 1003/1/6 1004/1/6
f 1004/1/6 1003/1/6 1005/1/6
f 1006/1/6 1007/1/6 1010/1/6
f 1007/8/6 1008/8/6 1011/8/6
f 1010/1/6 1007/1/6 1011/1/6
f 1011/8/6 1008/8/6 1012/8/6
f 1009/1/6 1010/1/6 1013/1/6
f 1010/1/6 1011/1/6 1013/1/6
f 1011/1/6 1012/1/6 1013/1/6
f 1013/1/6 1012/1/6 1014/1/6
f 1014/1/6 1012/1/6 1015/1/6
f 1015/1/6 1012/1/6 1016/1/6
f 1013/8/6 1014/8/6 1017/8/6
f 1017/8/6 1014/8/6 1018/8/6
f 1015/8/6 1016/8/6 1019/8/6
f 1019/8/6 1016/8/6 1020/8/6
f 1017/1/6 1018/1/6 1021/1/6
f 1021/1/6 1018/1/6 1022/1/6
f 1019/1/6 1020/1/6 1023/1/6
f 1023/1/6 1020/1/6 1024/1/6
f 1021/8/6 1022/8/6 1025/8/6
f 1025/8/6 1022/8/6 1026/8/6
f 1023/8/6 1024/8/6 1027/8/6
f 1027/8/6 1024/8/6 1028/8/6
f 1025/1/6 1026/1/6 1029/1/6
f 1026/1/6 1027/1/6 1029/1/6
f 1027/1/6 1028/1/6 1029/1/6
f 1029/1/6 1028/1/6 1030/1/6
f 1031/1/6 1032/1/6 1033/1/6
f 1033/1/6 1032/1/6 1034/1/6
