# MagicaVoxel @ Ephtracy

# group
o 

# material
mtllib zombi.mtl
usemtl palette

# normals
vn -1 0 0
vn 1 0 0
vn 0 0 1
vn 0 0 -1
vn 0 -1 0
vn 0 1 0

# texcoords
vt 0.0605469 0.5
vt 0.369141 0.5
vt 0.486328 0.5
vt 0.603516 0.5
vt 0.607422 0.5
vt 0.623047 0.5
vt 0.767578 0.5
vt 0.841797 0.5
vt 0.904297 0.5
vt 0.958984 0.5
vt 0.966797 0.5
vt 0.970703 0.5
vt 0.974609 0.5
vt 0.978516 0.5
vt 0.994141 0.5

# verts
v -0.5 0.3 -2.98023e-08
v -0.5 0.3 -0.1
v -0.5 0.4 -2.98023e-08
v -0.5 0.4 -0.1
v -0.5 1.3 -2.98023e-08
v -0.5 1.3 -0.1
v -0.5 1.4 -2.98023e-08
v -0.5 1.4 -0.1
v -0.5 1.5 -2.98023e-08
v -0.5 1.5 -0.1
v -0.4 0.4 -2.98023e-08
v -0.4 0.4 -0.1
v -0.4 0.5 -2.98023e-08
v -0.4 0.5 -0.1
v -0.4 0.8 0.1
v -0.4 0.8 -0.2
v -0.4 0.9 0.2
v -0.4 0.9 0.1
v -0.4 0.9 -2.98023e-08
v -0.4 0.9 -0.1
v -0.4 0.9 -0.2
v -0.4 0.9 -0.3
v -0.4 1 0.1
v -0.4 1 -2.98023e-08
v -0.4 1 -0.1
v -0.4 1 -0.2
v -0.4 1.1 0.1
v -0.4 1.1 -2.98023e-08
v -0.4 1.1 -0.1
v -0.4 1.1 -0.2
v -0.4 1.2 0.2
v -0.4 1.2 0.1
v -0.4 1.2 -2.98023e-08
v -0.4 1.2 -0.1
v -0.4 1.2 -0.2
v -0.4 1.2 -0.3
v -0.4 1.3 0.1
v -0.4 1.3 -2.98023e-08
v -0.4 1.3 -0.1
v -0.4 1.3 -0.2
v -0.3 0.3 0.2
v -0.3 0.3 0.1
v -0.3 0.3 -2.98023e-08
v -0.3 0.3 -0.1
v -0.3 0.3 -0.2
v -0.3 0.3 -0.3
v -0.3 0.4 0.2
v -0.3 0.4 0.1
v -0.3 0.4 -2.98023e-08
v -0.3 0.4 -0.1
v -0.3 0.4 -0.2
v -0.3 0.4 -0.3
v -0.3 0.5 0.1
v -0.3 0.5 -2.98023e-08
v -0.3 0.5 -0.1
v -0.3 0.6 -2.98023e-08
v -0.3 0.6 -0.1
v -0.3 0.6 -0.2
v -0.3 0.7 0.2
v -0.3 0.7 0.1
v -0.3 0.7 -2.98023e-08
v -0.3 0.7 -0.1
v -0.3 0.7 -0.2
v -0.3 0.7 -0.3
v -0.3 0.8 0.1
v -0.3 0.8 -2.98023e-08
v -0.3 0.8 -0.2
v -0.3 0.8 -0.3
v -0.3 0.9 0.2
v -0.3 0.9 0.1
v -0.3 0.9 -2.98023e-08
v -0.3 0.9 -0.1
v -0.3 0.9 -0.2
v -0.3 0.9 -0.3
v -0.3 0.9 -0.4
v -0.3 1 0.3
v -0.3 1 0.2
v -0.3 1 0.1
v -0.3 1 -2.98023e-08
v -0.3 1 -0.1
v -0.3 1 -0.2
v -0.3 1.1 0.1
v -0.3 1.1 -2.98023e-08
v -0.3 1.1 -0.1
v -0.3 1.1 -0.2
v -0.3 1.2 0.3
v -0.3 1.2 0.2
v -0.3 1.2 0.1
v -0.3 1.2 -2.98023e-08
v -0.3 1.2 -0.1
v -0.3 1.2 -0.2
v -0.3 1.2 -0.3
v -0.3 1.2 -0.4
v -0.3 1.3 0.2
v -0.3 1.3 0.1
v -0.3 1.3 -0.2
v -0.3 1.3 -0.3
v -0.2 0 -2.98023e-08
v -0.2 0 -0.1
v -0.2 0.2 -2.98023e-08
v -0.2 0.2 -0.1
v -0.2 0.3 -2.98023e-08
v -0.2 0.3 -0.1
v -0.2 0.4 0.1
v -0.2 0.4 -2.98023e-08
v -0.2 0.4 -0.1
v -0.2 0.4 -0.2
v -0.2 0.5 0.1
v -0.2 0.5 -2.98023e-08
v -0.2 0.5 -0.1
v -0.2 0.6 0.2
v -0.2 0.6 0.1
v -0.2 0.6 -0.1
v -0.2 0.6 -0.2
v -0.2 0.6 -0.3
v -0.2 0.7 0.2
v -0.2 0.7 0.1
v -0.2 0.7 -2.98023e-08
v -0.2 0.7 -0.2
v -0.2 0.7 -0.3
v -0.2 0.7 -0.4
v -0.2 0.8 0.1
v -0.2 0.8 -2.98023e-08
v -0.2 0.8 -0.3
v -0.2 0.8 -0.4
v -0.2 0.8 -0.5
v -0.2 0.9 -0.3
v -0.2 0.9 -0.4
v -0.2 1.1 -0.4
v -0.2 1.1 -0.5
v -0.2 1.3 0.1
v -0.2 1.3 -0.2
v -0.2 1.4 0.1
v -0.2 1.4 -0.2
v -0.1 0.6 -0.3
v -0.1 0.6 -0.4
v -0.1 0.7 -0.3
v -0.1 0.7 -0.4
v -0.1 0.9 0.2
v -0.1 0.9 0.1
v -0.1 1 0.2
v -0.1 1 0.1
v 0.1 0 -2.98023e-08
v 0.1 0 -0.1
v 0.1 0.2 -2.98023e-08
v 0.1 0.2 -0.1
v 0.1 0.3 -2.98023e-08
v 0.1 0.3 -0.1
v 0.1 0.5 -0.2
v 0.1 0.5 -0.3
v 0.1 0.5 -0.4
v 0.1 0.6 0.2
v 0.1 0.6 0.1
v 0.1 0.6 -0.2
v 0.1 0.6 -0.3
v 0.1 0.6 -0.4
v 0.1 0.7 0.2
v 0.1 0.7 0.1
v 0.1 0.7 -0.3
v 0.1 0.7 -0.4
v 0.1 0.8 -0.3
v 0.1 0.8 -0.4
v 0.1 0.8 -0.5
v 0.1 0.9 -0.3
v 0.1 0.9 -0.5
v 0.2 0.4 -0.3
v 0.2 0.4 -0.4
v 0.2 0.5 -0.3
v 0.2 0.5 -0.4
v 0.2 0.6 -0.3
v 0.2 0.6 -0.4
v 0.2 0.7 0.2
v 0.2 0.7 0.1
v 0.2 0.7 -0.3
v 0.2 0.7 -0.4
v 0.2 0.8 0.1
v 0.2 0.9 0.1
v 0.2 1 0.2
v 0.2 1 0.1
v 0.3 0.3 -0.3
v 0.3 0.3 -0.4
v 0.3 0.4 -0.3
v 0.3 0.4 -0.4
v 0.3 0.5 -2.98023e-08
v 0.3 0.5 -0.1
v 0.3 0.5 -0.3
v 0.3 0.5 -0.4
v 0.3 0.6 -2.98023e-08
v 0.3 0.6 -0.1
v 0.3 0.6 -0.3
v 0.3 0.6 -0.4
v 0.3 1.3 -2.98023e-08
v 0.3 1.3 -0.1
v 0.3 1.4 -2.98023e-08
v 0.3 1.4 -0.1
v 0.4 0.4 -2.98023e-08
v 0.4 0.4 -0.1
v 0.4 0.4 -0.3
v 0.4 0.4 -0.4
v 0.4 0.5 -2.98023e-08
v 0.4 0.5 -0.1
v 0.4 0.5 -0.3
v 0.4 0.5 -0.4
v 0.4 0.6 -0.2
v 0.4 0.6 -0.3
v 0.4 0.7 -0.2
v 0.4 0.7 -0.3
v 0.4 1.4 -2.98023e-08
v 0.4 1.4 -0.1
v 0.4 1.5 -2.98023e-08
v 0.4 1.5 -0.1
v 0.5 0.3 -0.3
v 0.5 0.3 -0.4
v 0.5 0.4 -0.3
v 0.5 0.4 -0.4
v 0.6 0.4 -0.2
v 0.6 0.4 -0.3
v 0.6 0.5 -0.2
v 0.6 0.5 -0.3
v 0.6 0.6 -2.98023e-08
v 0.6 0.6 -0.1
v 0.6 0.7 -2.98023e-08
v 0.6 0.7 -0.1
v 0.7 0.5 -0.1
v 0.7 0.5 -0.2
v 0.7 0.6 -0.1
v 0.7 0.6 -0.2
v -0.4 0.3 -2.98023e-08
v -0.4 0.3 -0.1
v -0.4 0.4 -2.98023e-08
v -0.4 0.4 -0.1
v -0.4 1.4 -2.98023e-08
v -0.4 1.4 -0.1
v -0.4 1.5 -2.98023e-08
v -0.4 1.5 -0.1
v -0.3 0.4 -2.98023e-08
v -0.3 0.4 -0.1
v -0.3 0.5 -2.98023e-08
v -0.3 0.5 -0.1
v -0.3 1.3 -2.98023e-08
v -0.3 1.3 -0.1
v -0.3 1.4 -2.98023e-08
v -0.3 1.4 -0.1
v -0.2 0.7 0.2
v -0.2 0.7 0.1
v -0.2 0.8 0.1
v -0.2 0.9 0.1
v -0.2 1 0.2
v -0.2 1 0.1
v -0.1 0 -2.98023e-08
v -0.1 0 -0.1
v -0.1 0.2 -2.98023e-08
v -0.1 0.2 -0.1
v -0.1 0.3 -2.98023e-08
v -0.1 0.3 -0.1
v -0.1 0.6 0.2
v -0.1 0.6 0.1
v -0.1 0.7 0.2
v -0.1 0.7 0.1
v -0.1 0.7 -0.3
v -0.1 0.7 -0.4
v -0.1 0.8 -0.3
v -0.1 0.8 -0.4
v -0.1 0.8 -0.5
v -0.1 0.9 -0.3
v -0.1 0.9 -0.5
v 0 0.9 0.2
v 0 0.9 0.1
v 0 1 0.2
v 0 1 0.1
v 0.1 0.6 -0.3
v 0.1 0.6 -0.4
v 0.1 0.7 -0.3
v 0.1 0.7 -0.4
v 0.2 0 -2.98023e-08
v 0.2 0 -0.1
v 0.2 0.2 -2.98023e-08
v 0.2 0.2 -0.1
v 0.2 0.3 -2.98023e-08
v 0.2 0.3 -0.1
v 0.2 0.4 0.1
v 0.2 0.4 -2.98023e-08
v 0.2 0.4 -0.1
v 0.2 0.4 -0.2
v 0.2 0.5 0.1
v 0.2 0.5 -2.98023e-08
v 0.2 0.5 -0.1
v 0.2 0.5 -0.2
v 0.2 0.5 -0.3
v 0.2 0.5 -0.4
v 0.2 0.6 0.2
v 0.2 0.6 0.1
v 0.2 0.6 -2.98023e-08
v 0.2 0.6 -0.1
v 0.2 0.6 -0.2
v 0.2 0.6 -0.3
v 0.2 0.6 -0.4
v 0.2 0.7 0.2
v 0.2 0.7 0.1
v 0.2 0.7 -2.98023e-08
v 0.2 0.7 -0.3
v 0.2 0.7 -0.4
v 0.2 0.8 0.1
v 0.2 0.8 -2.98023e-08
v 0.2 0.8 -0.3
v 0.2 0.8 -0.4
v 0.2 0.8 -0.5
v 0.2 0.9 -0.3
v 0.2 0.9 -0.4
v 0.2 1.1 -0.4
v 0.2 1.1 -0.5
v 0.2 1.3 0.1
v 0.2 1.3 -0.1
v 0.2 1.3 -0.2
v 0.2 1.4 0.1
v 0.2 1.4 -0.2
v 0.3 0.3 0.2
v 0.3 0.3 0.1
v 0.3 0.3 -2.98023e-08
v 0.3 0.3 -0.1
v 0.3 0.3 -0.2
v 0.3 0.3 -0.3
v 0.3 0.4 0.2
v 0.3 0.4 0.1
v 0.3 0.4 -2.98023e-08
v 0.3 0.4 -0.1
v 0.3 0.4 -0.2
v 0.3 0.4 -0.3
v 0.3 0.4 -0.4
v 0.3 0.5 0.1
v 0.3 0.5 -2.98023e-08
v 0.3 0.5 -0.3
v 0.3 0.5 -0.4
v 0.3 0.6 -2.98023e-08
v 0.3 0.6 -0.1
v 0.3 0.6 -0.3
v 0.3 0.6 -0.4
v 0.3 0.7 0.2
v 0.3 0.7 0.1
v 0.3 0.7 -2.98023e-08
v 0.3 0.7 -0.1
v 0.3 0.7 -0.2
v 0.3 0.7 -0.3
v 0.3 0.7 -0.4
v 0.3 0.8 0.1
v 0.3 0.8 -2.98023e-08
v 0.3 0.8 -0.1
v 0.3 0.8 -0.2
v 0.3 0.8 -0.3
v 0.3 0.9 0.2
v 0.3 0.9 0.1
v 0.3 0.9 -2.98023e-08
v 0.3 0.9 -0.1
v 0.3 0.9 -0.2
v 0.3 0.9 -0.3
v 0.3 0.9 -0.4
v 0.3 1 0.3
v 0.3 1 0.2
v 0.3 1 0.1
v 0.3 1 -2.98023e-08
v 0.3 1 -0.1
v 0.3 1 -0.2
v 0.3 1.1 0.3
v 0.3 1.1 0.2
v 0.3 1.1 0.1
v 0.3 1.1 -2.98023e-08
v 0.3 1.1 -0.1
v 0.3 1.1 -0.2
v 0.3 1.2 0.3
v 0.3 1.2 0.2
v 0.3 1.2 0.1
v 0.3 1.2 -2.98023e-08
v 0.3 1.2 -0.1
v 0.3 1.2 -0.2
v 0.3 1.2 -0.3
v 0.3 1.2 -0.4
v 0.3 1.3 0.2
v 0.3 1.3 0.1
v 0.3 1.3 -0.2
v 0.3 1.3 -0.3
v 0.4 0.3 -2.98023e-08
v 0.4 0.3 -0.1
v 0.4 0.3 -0.3
v 0.4 0.3 -0.4
v 0.4 0.4 -2.98023e-08
v 0.4 0.4 -0.1
v 0.4 0.4 -0.3
v 0.4 0.4 -0.4
v 0.4 0.5 -2.98023e-08
v 0.4 0.5 -0.1
v 0.4 0.5 -0.3
v 0.4 0.5 -0.4
v 0.4 0.6 -2.98023e-08
v 0.4 0.6 -0.1
v 0.4 0.6 -0.3
v 0.4 0.6 -0.4
v 0.4 0.7 -0.1
v 0.4 0.7 -0.2
v 0.4 0.8 0.1
v 0.4 0.8 -0.1
v 0.4 0.8 -0.2
v 0.4 0.9 0.2
v 0.4 0.9 0.1
v 0.4 0.9 -2.98023e-08
v 0.4 0.9 -0.1
v 0.4 0.9 -0.2
v 0.4 0.9 -0.3
v 0.4 1 0.1
v 0.4 1 -2.98023e-08
v 0.4 1 -0.1
v 0.4 1 -0.2
v 0.4 1.1 0.1
v 0.4 1.1 -2.98023e-08
v 0.4 1.1 -0.1
v 0.4 1.1 -0.2
v 0.4 1.2 0.2
v 0.4 1.2 0.1
v 0.4 1.2 -2.98023e-08
v 0.4 1.2 -0.1
v 0.4 1.2 -0.2
v 0.4 1.2 -0.3
v 0.4 1.3 0.1
v 0.4 1.3 -2.98023e-08
v 0.4 1.3 -0.1
v 0.4 1.3 -0.2
v 0.5 0.4 -2.98023e-08
v 0.5 0.4 -0.1
v 0.5 0.4 -0.3
v 0.5 0.4 -0.4
v 0.5 0.5 -2.98023e-08
v 0.5 0.5 -0.1
v 0.5 0.5 -0.3
v 0.5 0.5 -0.4
v 0.5 0.6 -0.2
v 0.5 0.6 -0.3
v 0.5 0.7 -0.2
v 0.5 0.7 -0.3
v 0.5 1.3 -2.98023e-08
v 0.5 1.3 -0.1
v 0.5 1.4 -2.98023e-08
v 0.5 1.4 -0.1
v 0.5 1.5 -2.98023e-08
v 0.5 1.5 -0.1
v 0.6 0.3 -0.3
v 0.6 0.3 -0.4
v 0.6 0.4 -0.3
v 0.6 0.4 -0.4
v 0.7 0.4 -0.2
v 0.7 0.4 -0.3
v 0.7 0.5 -0.2
v 0.7 0.5 -0.3
v 0.7 0.6 -2.98023e-08
v 0.7 0.6 -0.1
v 0.7 0.7 -2.98023e-08
v 0.7 0.7 -0.1
v 0.8 0.5 -0.1
v 0.8 0.5 -0.2
v 0.8 0.6 -0.1
v 0.8 0.6 -0.2
v -0.3 1 0.3
v -0.3 1.2 0.3
v 0 1 0.3
v 0 1.2 0.3
v 0.2 1.1 0.3
v 0.2 1.2 0.3
v 0.3 1 0.3
v 0.3 1.1 0.3
v 0.3 1.2 0.3
v -0.4 0.9 0.2
v -0.4 1.2 0.2
v -0.3 0.3 0.2
v -0.3 0.4 0.2
v -0.3 0.7 0.2
v -0.3 0.9 0.2
v -0.3 1 0.2
v -0.3 1.2 0.2
v -0.3 1.3 0.2
v -0.2 0.3 0.2
v -0.2 0.4 0.2
v -0.2 0.6 0.2
v -0.2 0.7 0.2
v -0.2 1 0.2
v -0.2 1.2 0.2
v -0.2 1.3 0.2
v -0.1 0.3 0.2
v -0.1 0.4 0.2
v -0.1 0.6 0.2
v -0.1 0.7 0.2
v -0.1 0.9 0.2
v -0.1 1 0.2
v 0 0.3 0.2
v 0 0.4 0.2
v 0 0.9 0.2
v 0 1 0.2
v 0 1.2 0.2
v 0.1 0.3 0.2
v 0.1 0.4 0.2
v 0.1 0.6 0.2
v 0.1 0.7 0.2
v 0.2 0.3 0.2
v 0.2 0.4 0.2
v 0.2 0.6 0.2
v 0.2 0.7 0.2
v 0.2 1 0.2
v 0.2 1.2 0.2
v 0.3 0.3 0.2
v 0.3 0.4 0.2
v 0.3 0.7 0.2
v 0.3 0.9 0.2
v 0.3 1 0.2
v 0.3 1.1 0.2
v 0.3 1.2 0.2
v 0.3 1.3 0.2
v 0.4 0.9 0.2
v 0.4 1.2 0.2
v -0.4 0.8 0.1
v -0.4 0.9 0.1
v -0.4 1.2 0.1
v -0.4 1.3 0.1
v -0.3 0.5 0.1
v -0.3 0.7 0.1
v -0.3 0.8 0.1
v -0.3 0.9 0.1
v -0.3 1.2 0.1
v -0.3 1.3 0.1
v -0.2 0.4 0.1
v -0.2 0.5 0.1
v -0.2 0.6 0.1
v -0.2 0.7 0.1
v -0.2 0.8 0.1
v -0.2 0.9 0.1
v -0.2 1 0.1
v -0.2 1.3 0.1
v -0.2 1.4 0.1
v -0.1 0.4 0.1
v -0.1 0.6 0.1
v -0.1 0.7 0.1
v -0.1 0.8 0.1
v -0.1 0.9 0.1
v -0.1 1 0.1
v -0.1 1.3 0.1
v -0.1 1.4 0.1
v 0 0.4 0.1
v 0 0.6 0.1
v 0 0.7 0.1
v 0 0.8 0.1
v 0 0.9 0.1
v 0 1 0.1
v 0.1 0.4 0.1
v 0.1 0.5 0.1
v 0.1 0.6 0.1
v 0.1 0.7 0.1
v 0.1 0.8 0.1
v 0.1 0.9 0.1
v 0.2 0.4 0.1
v 0.2 0.5 0.1
v 0.2 0.6 0.1
v 0.2 0.7 0.1
v 0.2 0.8 0.1
v 0.2 0.9 0.1
v 0.2 1 0.1
v 0.2 1.3 0.1
v 0.2 1.4 0.1
v 0.3 0.5 0.1
v 0.3 0.7 0.1
v 0.3 0.8 0.1
v 0.3 0.9 0.1
v 0.3 1.2 0.1
v 0.3 1.3 0.1
v 0.4 0.8 0.1
v 0.4 0.9 0.1
v 0.4 1.2 0.1
v 0.4 1.3 0.1
v -0.5 0.3 -2.98023e-08
v -0.5 0.4 -2.98023e-08
v -0.5 1.3 -2.98023e-08
v -0.5 1.4 -2.98023e-08
v -0.5 1.5 -2.98023e-08
v -0.4 0.3 -2.98023e-08
v -0.4 0.4 -2.98023e-08
v -0.4 0.5 -2.98023e-08
v -0.4 0.9 -2.98023e-08
v -0.4 1 -2.98023e-08
v -0.4 1.1 -2.98023e-08
v -0.4 1.2 -2.98023e-08
v -0.4 1.3 -2.98023e-08
v -0.4 1.4 -2.98023e-08
v -0.4 1.5 -2.98023e-08
v -0.3 0.4 -2.98023e-08
v -0.3 0.5 -2.98023e-08
v -0.3 0.7 -2.98023e-08
v -0.3 0.8 -2.98023e-08
v -0.3 0.9 -2.98023e-08
v -0.3 1 -2.98023e-08
v -0.3 1.1 -2.98023e-08
v -0.3 1.2 -2.98023e-08
v -0.3 1.3 -2.98023e-08
v -0.3 1.4 -2.98023e-08
v -0.2 0 -2.98023e-08
v -0.2 0.2 -2.98023e-08
v -0.2 0.3 -2.98023e-08
v -0.2 0.7 -2.98023e-08
v -0.2 0.8 -2.98023e-08
v -0.1 0 -2.98023e-08
v -0.1 0.2 -2.98023e-08
v -0.1 0.3 -2.98023e-08
v 0.1 0 -2.98023e-08
v 0.1 0.2 -2.98023e-08
v 0.1 0.3 -2.98023e-08
v 0.2 0 -2.98023e-08
v 0.2 0.2 -2.98023e-08
v 0.2 0.3 -2.98023e-08
v 0.2 0.7 -2.98023e-08
v 0.2 0.8 -2.98023e-08
v 0.3 0.3 -2.98023e-08
v 0.3 0.4 -2.98023e-08
v 0.3 0.5 -2.98023e-08
v 0.3 0.6 -2.98023e-08
v 0.3 0.7 -2.98023e-08
v 0.3 0.8 -2.98023e-08
v 0.3 0.9 -2.98023e-08
v 0.3 1 -2.98023e-08
v 0.3 1.1 -2.98023e-08
v 0.3 1.2 -2.98023e-08
v 0.3 1.3 -2.98023e-08
v 0.3 1.4 -2.98023e-08
v 0.4 0.3 -2.98023e-08
v 0.4 0.4 -2.98023e-08
v 0.4 0.5 -2.98023e-08
v 0.4 0.6 -2.98023e-08
v 0.4 0.9 -2.98023e-08
v 0.4 1 -2.98023e-08
v 0.4 1.1 -2.98023e-08
v 0.4 1.2 -2.98023e-08
v 0.4 1.3 -2.98023e-08
v 0.4 1.4 -2.98023e-08
v 0.4 1.5 -2.98023e-08
v 0.5 0.4 -2.98023e-08
v 0.5 0.5 -2.98023e-08
v 0.5 1.3 -2.98023e-08
v 0.5 1.4 -2.98023e-08
v 0.5 1.5 -2.98023e-08
v 0.6 0.6 -2.98023e-08
v 0.6 0.7 -2.98023e-08
v 0.7 0.6 -2.98023e-08
v 0.7 0.7 -2.98023e-08
v -0.4 1 -0.1
v -0.4 1.1 -0.1
v -0.3 1 -0.1
v -0.3 1.1 -0.1
v 0.3 0.7 -0.1
v 0.3 0.8 -0.1
v 0.3 1 -0.1
v 0.3 1.1 -0.1
v 0.4 0.7 -0.1
v 0.4 0.8 -0.1
v 0.4 1 -0.1
v 0.4 1.1 -0.1
v 0.7 0.5 -0.1
v 0.7 0.6 -0.1
v 0.8 0.5 -0.1
v 0.8 0.6 -0.1
v -0.4 0.9 -0.2
v -0.4 1 -0.2
v -0.4 1.1 -0.2
v -0.4 1.2 -0.2
v -0.3 0.9 -0.2
v -0.3 1 -0.2
v -0.3 1.1 -0.2
v -0.3 1.2 -0.2
v 0.3 0.9 -0.2
v 0.3 1 -0.2
v 0.3 1.1 -0.2
v 0.3 1.2 -0.2
v 0.4 0.6 -0.2
v 0.4 0.7 -0.2
v 0.4 0.9 -0.2
v 0.4 1 -0.2
v 0.4 1.1 -0.2
v 0.4 1.2 -0.2
v 0.5 0.6 -0.2
v 0.5 0.7 -0.2
v 0.6 0.4 -0.2
v 0.6 0.5 -0.2
v 0.7 0.4 -0.2
v 0.7 0.5 -0.2
v 0.2 0.4 -0.3
v 0.2 0.5 -0.3
v 0.3 0.3 -0.3
v 0.3 0.4 -0.3
v 0.3 0.5 -0.3
v 0.3 0.6 -0.3
v 0.4 0.3 -0.3
v 0.4 0.4 -0.3
v 0.4 0.5 -0.3
v 0.4 0.6 -0.3
v 0.5 0.3 -0.3
v 0.5 0.4 -0.3
v 0.5 0.5 -0.3
v 0.6 0.3 -0.3
v 0.6 0.4 -0.3
v -0.4 0.9 0.1
v -0.4 1 0.1
v -0.4 1.1 0.1
v -0.4 1.2 0.1
v -0.3 0.7 0.1
v -0.3 0.8 0.1
v -0.3 0.9 0.1
v -0.3 1 0.1
v -0.3 1.1 0.1
v -0.3 1.2 0.1
v -0.2 0.7 0.1
v -0.2 0.8 0.1
v 0.2 0.7 0.1
v 0.2 0.8 0.1
v 0.3 0.7 0.1
v 0.3 0.8 0.1
v 0.3 0.9 0.1
v 0.3 1 0.1
v 0.3 1.1 0.1
v 0.3 1.2 0.1
v 0.4 0.9 0.1
v 0.4 1 0.1
v 0.4 1.1 0.1
v 0.4 1.2 0.1
v -0.4 1 -2.98023e-08
v -0.4 1.1 -2.98023e-08
v -0.3 1 -2.98023e-08
v -0.3 1.1 -2.98023e-08
v 0.2 0.5 -2.98023e-08
v 0.2 0.6 -2.98023e-08
v 0.3 0.5 -2.98023e-08
v 0.3 0.6 -2.98023e-08
v 0.3 1 -2.98023e-08
v 0.3 1.1 -2.98023e-08
v 0.4 1 -2.98023e-08
v 0.4 1.1 -2.98023e-08
v -0.5 0.3 -0.1
v -0.5 0.4 -0.1
v -0.5 1.3 -0.1
v -0.5 1.4 -0.1
v -0.5 1.5 -0.1
v -0.4 0.3 -0.1
v -0.4 0.4 -0.1
v -0.4 0.5 -0.1
v -0.4 0.9 -0.1
v -0.4 1 -0.1
v -0.4 1.1 -0.1
v -0.4 1.2 -0.1
v -0.4 1.3 -0.1
v -0.4 1.4 -0.1
v -0.4 1.5 -0.1
v -0.3 0.4 -0.1
v -0.3 0.5 -0.1
v -0.3 0.6 -0.1
v -0.3 0.9 -0.1
v -0.3 1 -0.1
v -0.3 1.1 -0.1
v -0.3 1.2 -0.1
v -0.3 1.3 -0.1
v -0.3 1.4 -0.1
v -0.2 0 -0.1
v -0.2 0.2 -0.1
v -0.2 0.3 -0.1
v -0.2 0.5 -0.1
v -0.2 0.6 -0.1
v -0.1 0 -0.1
v -0.1 0.2 -0.1
v -0.1 0.3 -0.1
v 0.1 0 -0.1
v 0.1 0.2 -0.1
v 0.1 0.3 -0.1
v 0.2 0 -0.1
v 0.2 0.2 -0.1
v 0.2 0.3 -0.1
v 0.3 0.3 -0.1
v 0.3 0.4 -0.1
v 0.3 0.5 -0.1
v 0.3 0.6 -0.1
v 0.3 0.9 -0.1
v 0.3 1 -0.1
v 0.3 1.1 -0.1
v 0.3 1.2 -0.1
v 0.3 1.3 -0.1
v 0.3 1.4 -0.1
v 0.4 0.3 -0.1
v 0.4 0.4 -0.1
v 0.4 0.5 -0.1
v 0.4 0.6 -0.1
v 0.4 0.9 -0.1
v 0.4 1 -0.1
v 0.4 1.1 -0.1
v 0.4 1.2 -0.1
v 0.4 1.3 -0.1
v 0.4 1.4 -0.1
v 0.4 1.5 -0.1
v 0.5 0.4 -0.1
v 0.5 0.5 -0.1
v 0.5 1.3 -0.1
v 0.5 1.4 -0.1
v 0.5 1.5 -0.1
v 0.6 0.6 -0.1
v 0.6 0.7 -0.1
v 0.7 0.6 -0.1
v 0.7 0.7 -0.1
v -0.4 0.8 -0.2
v -0.4 0.9 -0.2
v -0.4 1.2 -0.2
v -0.4 1.3 -0.2
v -0.3 0.6 -0.2
v -0.3 0.7 -0.2
v -0.3 0.8 -0.2
v -0.3 0.9 -0.2
v -0.3 1.2 -0.2
v -0.3 1.3 -0.2
v -0.2 0.4 -0.2
v -0.2 0.6 -0.2
v -0.2 0.7 -0.2
v -0.2 1.3 -0.2
v -0.2 1.4 -0.2
v -0.1 0.4 -0.2
v -0.1 0.6 -0.2
v -0.1 1.3 -0.2
v -0.1 1.4 -0.2
v 0 0.4 -0.2
v 0 0.6 -0.2
v 0.1 0.4 -0.2
v 0.1 0.5 -0.2
v 0.1 0.6 -0.2
v 0.2 0.4 -0.2
v 0.2 0.5 -0.2
v 0.2 1.3 -0.2
v 0.2 1.4 -0.2
v 0.3 0.7 -0.2
v 0.3 0.8 -0.2
v 0.3 0.9 -0.2
v 0.3 1.2 -0.2
v 0.3 1.3 -0.2
v 0.4 0.7 -0.2
v 0.4 0.8 -0.2
v 0.4 0.9 -0.2
v 0.4 1.2 -0.2
v 0.4 1.3 -0.2
v 0.7 0.5 -0.2
v 0.7 0.6 -0.2
v 0.8 0.5 -0.2
v 0.8 0.6 -0.2
v -0.4 0.9 -0.3
v -0.4 1.2 -0.3
v -0.3 0.3 -0.3
v -0.3 0.4 -0.3
v -0.3 0.7 -0.3
v -0.3 0.8 -0.3
v -0.3 0.9 -0.3
v -0.3 1.2 -0.3
v -0.3 1.3 -0.3
v -0.2 0.3 -0.3
v -0.2 0.4 -0.3
v -0.2 0.6 -0.3
v -0.2 0.7 -0.3
v -0.2 0.8 -0.3
v -0.2 0.9 -0.3
v -0.1 0.3 -0.3
v -0.1 0.4 -0.3
v -0.1 0.6 -0.3
v -0.1 0.7 -0.3
v -0.1 0.8 -0.3
v -0.1 0.9 -0.3
v 0 0.3 -0.3
v 0 0.4 -0.3
v 0.1 0.3 -0.3
v 0.1 0.4 -0.3
v 0.1 0.6 -0.3
v 0.1 0.7 -0.3
v 0.1 0.8 -0.3
v 0.1 0.9 -0.3
v 0.2 0.3 -0.3
v 0.2 0.4 -0.3
v 0.2 0.6 -0.3
v 0.2 0.7 -0.3
v 0.2 0.8 -0.3
v 0.2 0.9 -0.3
v 0.3 0.3 -0.3
v 0.3 0.4 -0.3
v 0.3 0.7 -0.3
v 0.3 0.8 -0.3
v 0.3 0.9 -0.3
v 0.3 1.2 -0.3
v 0.3 1.3 -0.3
v 0.4 0.6 -0.3
v 0.4 0.7 -0.3
v 0.4 0.9 -0.3
v 0.4 1.2 -0.3
v 0.5 0.6 -0.3
v 0.5 0.7 -0.3
v 0.6 0.4 -0.3
v 0.6 0.5 -0.3
v 0.7 0.4 -0.3
v 0.7 0.5 -0.3
v -0.3 0.9 -0.4
v -0.3 1.2 -0.4
v -0.2 0.7 -0.4
v -0.2 0.8 -0.4
v -0.2 0.9 -0.4
v -0.2 1.1 -0.4
v -0.1 0.6 -0.4
v -0.1 0.7 -0.4
v -0.1 0.8 -0.4
v 0.1 0.5 -0.4
v 0.1 0.6 -0.4
v 0.1 0.7 -0.4
v 0.1 0.8 -0.4
v 0.2 0.4 -0.4
v 0.2 0.5 -0.4
v 0.2 0.6 -0.4
v 0.2 0.7 -0.4
v 0.2 0.8 -0.4
v 0.2 0.9 -0.4
v 0.2 1.1 -0.4
v 0.3 0.3 -0.4
v 0.3 0.4 -0.4
v 0.3 0.5 -0.4
v 0.3 0.6 -0.4
v 0.3 0.7 -0.4
v 0.3 0.9 -0.4
v 0.3 1.2 -0.4
v 0.4 0.3 -0.4
v 0.4 0.4 -0.4
v 0.4 0.5 -0.4
v 0.4 0.6 -0.4
v 0.5 0.3 -0.4
v 0.5 0.4 -0.4
v 0.5 0.5 -0.4
v 0.6 0.3 -0.4
v 0.6 0.4 -0.4
v -0.2 0.8 -0.5
v -0.2 1.1 -0.5
v -0.1 0.8 -0.5
v -0.1 0.9 -0.5
v 0.1 0.8 -0.5
v 0.1 0.9 -0.5
v 0.2 0.8 -0.5
v 0.2 1.1 -0.5
v -0.2 0 -2.98023e-08
v -0.1 0 -2.98023e-08
v 0.1 0 -2.98023e-08
v 0.2 0 -2.98023e-08
v -0.2 0 -0.1
v -0.1 0 -0.1
v 0.1 0 -0.1
v 0.2 0 -0.1
v -0.3 0.3 0.2
v -0.2 0.3 0.2
v -0.1 0.3 0.2
v 0 0.3 0.2
v 0.1 0.3 0.2
v 0.2 0.3 0.2
v 0.3 0.3 0.2
v -0.3 0.3 0.1
v -0.2 0.3 0.1
v 0.2 0.3 0.1
v 0.3 0.3 0.1
v -0.5 0.3 -2.98023e-08
v -0.4 0.3 -2.98023e-08
v -0.3 0.3 -2.98023e-08
v -0.2 0.3 -2.98023e-08
v -0.1 0.3 -2.98023e-08
v 0.1 0.3 -2.98023e-08
v 0.2 0.3 -2.98023e-08
v 0.3 0.3 -2.98023e-08
v 0.4 0.3 -2.98023e-08
v -0.5 0.3 -0.1
v -0.4 0.3 -0.1
v -0.3 0.3 -0.1
v -0.2 0.3 -0.1
v -0.1 0.3 -0.1
v 0.1 0.3 -0.1
v 0.2 0.3 -0.1
v 0.3 0.3 -0.1
v 0.4 0.3 -0.1
v -0.3 0.3 -0.2
v -0.2 0.3 -0.2
v 0.2 0.3 -0.2
v 0.3 0.3 -0.2
v -0.3 0.3 -0.3
v -0.2 0.3 -0.3
v -0.1 0.3 -0.3
v 0 0.3 -0.3
v 0.1 0.3 -0.3
v 0.2 0.3 -0.3
v 0.3 0.3 -0.3
v 0.4 0.3 -0.3
v 0.5 0.3 -0.3
v 0.6 0.3 -0.3
v 0.3 0.3 -0.4
v 0.4 0.3 -0.4
v 0.5 0.3 -0.4
v 0.6 0.3 -0.4
v -0.4 0.4 -2.98023e-08
v -0.3 0.4 -2.98023e-08
v 0.4 0.4 -2.98023e-08
v 0.5 0.4 -2.98023e-08
v -0.4 0.4 -0.1
v -0.3 0.4 -0.1
v 0.4 0.4 -0.1
v 0.5 0.4 -0.1
v 0.6 0.4 -0.2
v 0.7 0.4 -0.2
v 0.2 0.4 -0.3
v 0.3 0.4 -0.3
v 0.4 0.4 -0.3
v 0.5 0.4 -0.3
v 0.6 0.4 -0.3
v 0.7 0.4 -0.3
v 0.2 0.4 -0.4
v 0.3 0.4 -0.4
v 0.4 0.4 -0.4
v 0.5 0.4 -0.4
v -0.3 0.5 0.1
v -0.2 0.5 0.1
v 0.2 0.5 0.1
v 0.3 0.5 0.1
v -0.3 0.5 -2.98023e-08
v -0.2 0.5 -2.98023e-08
v 0.2 0.5 -2.98023e-08
v 0.3 0.5 -2.98023e-08
v 0.4 0.5 -2.98023e-08
v -0.3 0.5 -0.1
v -0.2 0.5 -0.1
v 0.3 0.5 -0.1
v 0.4 0.5 -0.1
v 0.7 0.5 -0.1
v 0.8 0.5 -0.1
v 0.1 0.5 -0.2
v 0.2 0.5 -0.2
v 0.7 0.5 -0.2
v 0.8 0.5 -0.2
v 0.1 0.5 -0.3
v 0.2 0.5 -0.3
v 0.3 0.5 -0.3
v 0.4 0.5 -0.3
v 0.1 0.5 -0.4
v 0.2 0.5 -0.4
v 0.3 0.5 -0.4
v 0.4 0.5 -0.4
v -0.2 0.6 0.2
v -0.1 0.6 0.2
v 0.1 0.6 0.2
v 0.2 0.6 0.2
v -0.2 0.6 0.1
v -0.1 0.6 0.1
v 0.1 0.6 0.1
v 0.2 0.6 0.1
v 0.2 0.6 -2.98023e-08
v 0.3 0.6 -2.98023e-08
v 0.6 0.6 -2.98023e-08
v 0.7 0.6 -2.98023e-08
v -0.3 0.6 -0.1
v -0.2 0.6 -0.1
v 0.2 0.6 -0.1
v 0.3 0.6 -0.1
v 0.6 0.6 -0.1
v 0.7 0.6 -0.1
v -0.3 0.6 -0.2
v -0.2 0.6 -0.2
v -0.1 0.6 -0.2
v 0 0.6 -0.2
v 0.1 0.6 -0.2
v 0.2 0.6 -0.2
v 0.4 0.6 -0.2
v 0.5 0.6 -0.2
v -0.2 0.6 -0.3
v -0.1 0.6 -0.3
v 0.1 0.6 -0.3
v 0.2 0.6 -0.3
v 0.3 0.6 -0.3
v 0.4 0.6 -0.3
v 0.5 0.6 -0.3
v -0.1 0.6 -0.4
v 0.1 0.6 -0.4
v 0.2 0.6 -0.4
v 0.3 0.6 -0.4
v -0.3 0.7 0.2
v -0.2 0.7 0.2
v 0.2 0.7 0.2
v 0.3 0.7 0.2
v -0.3 0.7 0.1
v -0.2 0.7 0.1
v 0.2 0.7 0.1
v 0.3 0.7 0.1
v 0.3 0.7 -0.1
v 0.4 0.7 -0.1
v -0.3 0.7 -0.2
v -0.2 0.7 -0.2
v 0.3 0.7 -0.2
v 0.4 0.7 -0.2
v -0.3 0.7 -0.3
v -0.2 0.7 -0.3
v -0.1 0.7 -0.3
v 0.1 0.7 -0.3
v 0.2 0.7 -0.3
v -0.2 0.7 -0.4
v -0.1 0.7 -0.4
v 0.1 0.7 -0.4
v 0.2 0.7 -0.4
v -0.4 0.8 0.1
v -0.3 0.8 0.1
v -0.2 0.8 0.1
v 0.2 0.8 0.1
v 0.3 0.8 0.1
v 0.4 0.8 0.1
v -0.3 0.8 -2.98023e-08
v -0.2 0.8 -2.98023e-08
v 0.2 0.8 -2.98023e-08
v 0.3 0.8 -2.98023e-08
v 0.3 0.8 -0.1
v 0.4 0.8 -0.1
v -0.4 0.8 -0.2
v -0.3 0.8 -0.2
v -0.2 0.8 -0.4
v -0.1 0.8 -0.4
v 0.1 0.8 -0.4
v 0.2 0.8 -0.4
v -0.2 0.8 -0.5
v -0.1 0.8 -0.5
v 0.1 0.8 -0.5
v 0.2 0.8 -0.5
v -0.4 0.9 0.2
v -0.3 0.9 0.2
v -0.1 0.9 0.2
v 0 0.9 0.2
v 0.3 0.9 0.2
v 0.4 0.9 0.2
v -0.4 0.9 0.1
v -0.3 0.9 0.1
v -0.1 0.9 0.1
v 0 0.9 0.1
v 0.3 0.9 0.1
v 0.4 0.9 0.1
v -0.4 0.9 -0.2
v -0.3 0.9 -0.2
v 0.3 0.9 -0.2
v 0.4 0.9 -0.2
v -0.4 0.9 -0.3
v -0.3 0.9 -0.3
v -0.2 0.9 -0.3
v -0.1 0.9 -0.3
v 0.1 0.9 -0.3
v 0.2 0.9 -0.3
v 0.3 0.9 -0.3
v 0.4 0.9 -0.3
v -0.3 0.9 -0.4
v -0.2 0.9 -0.4
v 0.2 0.9 -0.4
v 0.3 0.9 -0.4
v -0.1 0.9 -0.5
v 0.1 0.9 -0.5
v -0.3 1 0.3
v 0 1 0.3
v 0.3 1 0.3
v -0.3 1 0.2
v -0.2 1 0.2
v -0.1 1 0.2
v 0 1 0.2
v 0.2 1 0.2
v 0.3 1 0.2
v -0.4 1 0.1
v -0.3 1 0.1
v -0.2 1 0.1
v -0.1 1 0.1
v 0 1 0.1
v 0.2 1 0.1
v 0.3 1 0.1
v 0.4 1 0.1
v -0.4 1 -2.98023e-08
v -0.3 1 -2.98023e-08
v 0.3 1 -2.98023e-08
v 0.4 1 -2.98023e-08
v -0.4 1 -0.1
v -0.3 1 -0.1
v 0.3 1 -0.1
v 0.4 1 -0.1
v -0.4 1 -0.2
v -0.3 1 -0.2
v 0.3 1 -0.2
v 0.4 1 -0.2
v -0.4 1.1 -2.98023e-08
v -0.3 1.1 -2.98023e-08
v 0.3 1.1 -2.98023e-08
v 0.4 1.1 -2.98023e-08
v -0.4 1.1 -0.1
v -0.3 1.1 -0.1
v 0.3 1.1 -0.1
v 0.4 1.1 -0.1
v -0.4 1.2 0.1
v -0.3 1.2 0.1
v 0.3 1.2 0.1
v 0.4 1.2 0.1
v -0.4 1.2 -2.98023e-08
v -0.3 1.2 -2.98023e-08
v 0.3 1.2 -2.98023e-08
v 0.4 1.2 -2.98023e-08
v -0.4 1.2 -0.1
v -0.3 1.2 -0.1
v 0.3 1.2 -0.1
v 0.4 1.2 -0.1
v -0.4 1.2 -0.2
v -0.3 1.2 -0.2
v 0.3 1.2 -0.2
v 0.4 1.2 -0.2
v -0.5 1.3 -2.98023e-08
v -0.4 1.3 -2.98023e-08
v 0.4 1.3 -2.98023e-08
v 0.5 1.3 -2.98023e-08
v -0.5 1.3 -0.1
v -0.4 1.3 -0.1
v 0.4 1.3 -0.1
v 0.5 1.3 -0.1
v -0.3 0.4 0.2
v -0.2 0.4 0.2
v -0.1 0.4 0.2
v 0 0.4 0.2
v 0.1 0.4 0.2
v 0.2 0.4 0.2
v 0.3 0.4 0.2
v -0.3 0.4 0.1
v -0.2 0.4 0.1
v -0.1 0.4 0.1
v 0 0.4 0.1
v 0.1 0.4 0.1
v 0.2 0.4 0.1
v 0.3 0.4 0.1
v -0.5 0.4 -2.98023e-08
v -0.4 0.4 -2.98023e-08
v -0.3 0.4 -2.98023e-08
v -0.2 0.4 -2.98023e-08
v 0.2 0.4 -2.98023e-08
v 0.3 0.4 -2.98023e-08
v 0.4 0.4 -2.98023e-08
v -0.5 0.4 -0.1
v -0.4 0.4 -0.1
v -0.3 0.4 -0.1
v -0.2 0.4 -0.1
v 0.2 0.4 -0.1
v 0.3 0.4 -0.1
v 0.4 0.4 -0.1
v -0.3 0.4 -0.2
v -0.2 0.4 -0.2
v -0.1 0.4 -0.2
v 0 0.4 -0.2
v 0.1 0.4 -0.2
v 0.2 0.4 -0.2
v 0.3 0.4 -0.2
v -0.3 0.4 -0.3
v -0.2 0.4 -0.3
v -0.1 0.4 -0.3
v 0 0.4 -0.3
v 0.1 0.4 -0.3
v 0.2 0.4 -0.3
v 0.3 0.4 -0.3
v 0.4 0.4 -0.3
v 0.5 0.4 -0.3
v 0.6 0.4 -0.3
v 0.3 0.4 -0.4
v 0.4 0.4 -0.4
v 0.5 0.4 -0.4
v 0.6 0.4 -0.4
v -0.4 0.5 -2.98023e-08
v -0.3 0.5 -2.98023e-08
v 0.4 0.5 -2.98023e-08
v 0.5 0.5 -2.98023e-08
v -0.4 0.5 -0.1
v -0.3 0.5 -0.1
v 0.4 0.5 -0.1
v 0.5 0.5 -0.1
v 0.6 0.5 -0.2
v 0.7 0.5 -0.2
v 0.2 0.5 -0.3
v 0.3 0.5 -0.3
v 0.4 0.5 -0.3
v 0.5 0.5 -0.3
v 0.6 0.5 -0.3
v 0.7 0.5 -0.3
v 0.2 0.5 -0.4
v 0.3 0.5 -0.4
v 0.4 0.5 -0.4
v 0.5 0.5 -0.4
v 0.3 0.6 -2.98023e-08
v 0.4 0.6 -2.98023e-08
v 0.3 0.6 -0.1
v 0.4 0.6 -0.1
v 0.7 0.6 -0.1
v 0.8 0.6 -0.1
v 0.7 0.6 -0.2
v 0.8 0.6 -0.2
v 0.1 0.6 -0.3
v 0.2 0.6 -0.3
v 0.3 0.6 -0.3
v 0.4 0.6 -0.3
v 0.1 0.6 -0.4
v 0.2 0.6 -0.4
v 0.3 0.6 -0.4
v 0.4 0.6 -0.4
v -0.2 0.7 0.2
v -0.1 0.7 0.2
v 0.1 0.7 0.2
v 0.2 0.7 0.2
v -0.3 0.7 0.1
v -0.2 0.7 0.1
v -0.1 0.7 0.1
v 0.1 0.7 0.1
v 0.2 0.7 0.1
v 0.3 0.7 0.1
v -0.3 0.7 -2.98023e-08
v -0.2 0.7 -2.98023e-08
v 0.2 0.7 -2.98023e-08
v 0.3 0.7 -2.98023e-08
v 0.6 0.7 -2.98023e-08
v 0.7 0.7 -2.98023e-08
v 0.6 0.7 -0.1
v 0.7 0.7 -0.1
v 0.4 0.7 -0.2
v 0.5 0.7 -0.2
v -0.1 0.7 -0.3
v 0.1 0.7 -0.3
v 0.2 0.7 -0.3
v 0.3 0.7 -0.3
v 0.4 0.7 -0.3
v 0.5 0.7 -0.3
v -0.1 0.7 -0.4
v 0.1 0.7 -0.4
v 0.2 0.7 -0.4
v 0.3 0.7 -0.4
v -0.4 0.9 0.1
v -0.3 0.9 0.1
v 0.3 0.9 0.1
v 0.4 0.9 0.1
v -0.4 0.9 -2.98023e-08
v -0.3 0.9 -2.98023e-08
v 0.3 0.9 -2.98023e-08
v 0.4 0.9 -2.98023e-08
v -0.4 0.9 -0.1
v -0.3 0.9 -0.1
v 0.3 0.9 -0.1
v 0.4 0.9 -0.1
v -0.4 0.9 -0.2
v -0.3 0.9 -0.2
v 0.3 0.9 -0.2
v 0.4 0.9 -0.2
v -0.4 1 -2.98023e-08
v -0.3 1 -2.98023e-08
v 0.3 1 -2.98023e-08
v 0.4 1 -2.98023e-08
v -0.4 1 -0.1
v -0.3 1 -0.1
v 0.3 1 -0.1
v 0.4 1 -0.1
v -0.4 1.1 0.1
v -0.3 1.1 0.1
v 0.3 1.1 0.1
v 0.4 1.1 0.1
v -0.4 1.1 -2.98023e-08
v -0.3 1.1 -2.98023e-08
v 0.3 1.1 -2.98023e-08
v 0.4 1.1 -2.98023e-08
v -0.4 1.1 -0.1
v -0.3 1.1 -0.1
v 0.3 1.1 -0.1
v 0.4 1.1 -0.1
v -0.4 1.1 -0.2
v -0.3 1.1 -0.2
v 0.3 1.1 -0.2
v 0.4 1.1 -0.2
v -0.2 1.1 -0.4
v 0.2 1.1 -0.4
v -0.2 1.1 -0.5
v 0.2 1.1 -0.5
v -0.3 1.2 0.3
v 0 1.2 0.3
v 0.2 1.2 0.3
v 0.3 1.2 0.3
v -0.4 1.2 0.2
v -0.3 1.2 0.2
v -0.2 1.2 0.2
v 0 1.2 0.2
v 0.2 1.2 0.2
v 0.3 1.2 0.2
v 0.4 1.2 0.2
v -0.4 1.2 0.1
v -0.3 1.2 0.1
v 0.3 1.2 0.1
v 0.4 1.2 0.1
v -0.4 1.2 -0.2
v -0.3 1.2 -0.2
v 0.3 1.2 -0.2
v 0.4 1.2 -0.2
v -0.4 1.2 -0.3
v -0.3 1.2 -0.3
v 0.3 1.2 -0.3
v 0.4 1.2 -0.3
v -0.3 1.2 -0.4
v 0.3 1.2 -0.4
v -0.3 1.3 0.2
v -0.2 1.3 0.2
v 0.3 1.3 0.2
v -0.4 1.3 0.1
v -0.3 1.3 0.1
v -0.2 1.3 0.1
v -0.1 1.3 0.1
v 0.2 1.3 0.1
v 0.3 1.3 0.1
v 0.4 1.3 0.1
v -0.4 1.3 -2.98023e-08
v -0.3 1.3 -2.98023e-08
v 0.3 1.3 -2.98023e-08
v 0.4 1.3 -2.98023e-08
v -0.4 1.3 -0.1
v -0.3 1.3 -0.1
v 0.2 1.3 -0.1
v 0.3 1.3 -0.1
v 0.4 1.3 -0.1
v -0.4 1.3 -0.2
v -0.3 1.3 -0.2
v -0.2 1.3 -0.2
v -0.1 1.3 -0.2
v 0.2 1.3 -0.2
v 0.3 1.3 -0.2
v 0.4 1.3 -0.2
v -0.3 1.3 -0.3
v 0.3 1.3 -0.3
v -0.2 1.4 0.1
v -0.1 1.4 0.1
v 0.2 1.4 0.1
v -0.4 1.4 -2.98023e-08
v -0.3 1.4 -2.98023e-08
v 0.3 1.4 -2.98023e-08
v 0.4 1.4 -2.98023e-08
v -0.4 1.4 -0.1
v -0.3 1.4 -0.1
v 0.3 1.4 -0.1
v 0.4 1.4 -0.1
v -0.2 1.4 -0.2
v -0.1 1.4 -0.2
v 0.2 1.4 -0.2
v -0.5 1.5 -2.98023e-08
v -0.4 1.5 -2.98023e-08
v 0.4 1.5 -2.98023e-08
v 0.5 1.5 -2.98023e-08
v -0.5 1.5 -0.1
v -0.4 1.5 -0.1
v 0.4 1.5 -0.1
v 0.5 1.5 -0.1

# faces
f 3/9/1 2/9/1 1/9/1
f 4/9/1 2/9/1 3/9/1
f 7/14/1 6/14/1 5/14/1
f 8/14/1 6/14/1 7/14/1
f 9/13/1 8/13/1 7/13/1
f 10/13/1 8/13/1 9/13/1
f 13/6/1 12/6/1 11/6/1
f 14/6/1 12/6/1 13/6/1
f 18/14/1 16/14/1 15/14/1
f 19/14/1 16/14/1 18/14/1
f 20/14/1 16/14/1 19/14/1
f 21/14/1 16/14/1 20/14/1
f 23/14/1 18/14/1 17/14/1
f 24/14/1 20/14/1 19/14/1
f 25/14/1 20/14/1 24/14/1
f 26/14/1 22/14/1 21/14/1
f 27/14/1 23/14/1 17/14/1
f 27/14/1 24/14/1 23/14/1
f 28/14/1 24/14/1 27/14/1
f 29/14/1 26/14/1 25/14/1
f 30/14/1 22/14/1 26/14/1
f 30/14/1 26/14/1 29/14/1
f 31/14/1 27/14/1 17/14/1
f 32/14/1 27/14/1 31/14/1
f 33/14/1 29/14/1 28/14/1
f 34/14/1 29/14/1 33/14/1
f 35/14/1 22/14/1 30/14/1
f 36/14/1 22/14/1 35/14/1
f 37/14/1 34/14/1 33/14/1
f 37/14/1 35/14/1 34/14/1
f 37/14/1 33/14/1 32/14/1
f 38/14/1 35/14/1 37/14/1
f 39/14/1 35/14/1 38/14/1
f 40/14/1 35/14/1 39/14/1
f 47/7/1 42/7/1 41/7/1
f 48/4/1 43/4/1 42/4/1
f 48/7/1 42/7/1 47/7/1
f 49/7/1 44/7/1 43/7/1
f 49/4/1 43/4/1 48/4/1
f 50/4/1 45/4/1 44/4/1
f 50/7/1 44/7/1 49/7/1
f 51/7/1 46/7/1 45/7/1
f 51/4/1 45/4/1 50/4/1
f 52/7/1 46/7/1 51/7/1
f 56/8/1 54/8/1 53/8/1
f 56/9/1 55/9/1 54/9/1
f 57/9/1 55/9/1 56/9/1
f 60/8/1 56/8/1 53/8/1
f 61/7/1 57/7/1 56/7/1
f 61/8/1 56/8/1 60/8/1
f 62/8/1 58/8/1 57/8/1
f 62/7/1 57/7/1 61/7/1
f 63/8/1 58/8/1 62/8/1
f 65/8/1 60/8/1 59/8/1
f 66/8/1 64/8/1 63/8/1
f 66/8/1 63/8/1 62/8/1
f 66/8/1 62/8/1 61/8/1
f 67/8/1 64/8/1 66/8/1
f 68/8/1 64/8/1 67/8/1
f 69/8/1 65/8/1 59/8/1
f 70/8/1 65/8/1 69/8/1
f 73/13/1 68/13/1 67/13/1
f 74/13/1 68/13/1 73/13/1
f 78/8/1 71/8/1 70/8/1
f 79/8/1 71/8/1 78/8/1
f 80/8/1 73/8/1 72/8/1
f 81/8/1 73/8/1 80/8/1
f 83/13/1 80/13/1 79/13/1
f 84/13/1 80/13/1 83/13/1
f 86/12/1 77/12/1 76/12/1
f 87/12/1 77/12/1 86/12/1
f 88/13/1 83/13/1 82/13/1
f 89/13/1 83/13/1 88/13/1
f 90/14/1 85/14/1 84/14/1
f 91/14/1 85/14/1 90/14/1
f 92/14/1 75/14/1 74/14/1
f 93/14/1 75/14/1 92/14/1
f 94/14/1 88/14/1 87/14/1
f 95/14/1 88/14/1 94/14/1
f 96/14/1 92/14/1 91/14/1
f 97/14/1 92/14/1 96/14/1
f 100/2/1 99/2/1 98/2/1
f 101/2/1 99/2/1 100/2/1
f 102/9/1 101/9/1 100/9/1
f 103/9/1 101/9/1 102/9/1
f 108/4/1 105/4/1 104/4/1
f 109/7/1 106/7/1 105/7/1
f 109/4/1 105/4/1 108/4/1
f 110/4/1 107/4/1 106/4/1
f 110/7/1 106/7/1 109/7/1
f 113/4/1 107/4/1 110/4/1
f 114/4/1 107/4/1 113/4/1
f 116/8/1 112/8/1 111/8/1
f 117/8/1 112/8/1 116/8/1
f 119/8/1 115/8/1 114/8/1
f 120/8/1 115/8/1 119/8/1
f 122/1/1 118/1/1 117/1/1
f 123/1/1 118/1/1 122/1/1
f 124/8/1 121/8/1 120/8/1
f 125/8/1 121/8/1 124/8/1
f 127/14/1 126/14/1 125/14/1
f 127/14/1 125/14/1 124/14/1
f 128/14/1 126/14/1 127/14/1
f 129/14/1 126/14/1 128/14/1
f 130/14/1 126/14/1 129/14/1
f 133/14/1 132/14/1 131/14/1
f 134/14/1 132/14/1 133/14/1
f 137/8/1 136/8/1 135/8/1
f 138/8/1 136/8/1 137/8/1
f 141/8/1 140/8/1 139/8/1
f 142/8/1 140/8/1 141/8/1
f 145/2/1 144/2/1 143/2/1
f 146/2/1 144/2/1 145/2/1
f 147/9/1 146/9/1 145/9/1
f 148/9/1 146/9/1 147/9/1
f 154/3/1 150/3/1 149/3/1
f 155/8/1 151/8/1 150/8/1
f 155/3/1 150/3/1 154/3/1
f 156/8/1 151/8/1 155/8/1
f 157/8/1 153/8/1 152/8/1
f 158/8/1 153/8/1 157/8/1
f 161/8/1 160/8/1 159/8/1
f 162/8/1 160/8/1 161/8/1
f 164/14/1 162/14/1 161/14/1
f 164/14/1 163/14/1 162/14/1
f 165/14/1 163/14/1 164/14/1
f 168/8/1 167/8/1 166/8/1
f 169/8/1 167/8/1 168/8/1
f 174/8/1 171/8/1 170/8/1
f 175/8/1 171/8/1 174/8/1
f 176/8/1 173/8/1 172/8/1
f 177/8/1 176/8/1 172/8/1
f 178/8/1 177/8/1 172/8/1
f 179/8/1 177/8/1 178/8/1
f 182/8/1 181/8/1 180/8/1
f 183/8/1 181/8/1 182/8/1
f 188/9/1 185/9/1 184/9/1
f 189/9/1 185/9/1 188/9/1
f 190/8/1 187/8/1 186/8/1
f 191/8/1 187/8/1 190/8/1
f 194/13/1 193/13/1 192/13/1
f 195/13/1 193/13/1 194/13/1
f 200/9/1 197/9/1 196/9/1
f 201/9/1 197/9/1 200/9/1
f 202/8/1 199/8/1 198/8/1
f 203/8/1 199/8/1 202/8/1
f 206/8/1 205/8/1 204/8/1
f 207/8/1 205/8/1 206/8/1
f 210/12/1 209/12/1 208/12/1
f 211/12/1 209/12/1 210/12/1
f 214/8/1 213/8/1 212/8/1
f 215/8/1 213/8/1 214/8/1
f 218/8/1 217/8/1 216/8/1
f 219/8/1 217/8/1 218/8/1
f 222/8/1 221/8/1 220/8/1
f 223/8/1 221/8/1 222/8/1
f 226/8/1 225/8/1 224/8/1
f 227/8/1 225/8/1 226/8/1
f 228/9/2 229/9/2 230/9/2
f 230/9/2 229/9/2 231/9/2
f 232/13/2 233/13/2 234/13/2
f 234/13/2 233/13/2 235/13/2
f 236/6/2 237/6/2 238/6/2
f 238/6/2 237/6/2 239/6/2
f 240/14/2 241/14/2 242/14/2
f 242/14/2 241/14/2 243/14/2
f 244/8/2 245/8/2 246/8/2
f 244/8/2 246/8/2 247/8/2
f 244/8/2 247/8/2 248/8/2
f 248/8/2 247/8/2 249/8/2
f 250/2/2 251/2/2 252/2/2
f 252/2/2 251/2/2 253/2/2
f 252/9/2 253/9/2 254/9/2
f 254/9/2 253/9/2 255/9/2
f 256/8/2 257/8/2 258/8/2
f 258/8/2 257/8/2 259/8/2
f 260/8/2 261/8/2 262/8/2
f 262/8/2 261/8/2 263/8/2
f 262/14/2 263/14/2 265/14/2
f 263/14/2 264/14/2 265/14/2
f 265/14/2 264/14/2 266/14/2
f 267/8/2 268/8/2 269/8/2
f 269/8/2 268/8/2 270/8/2
f 271/8/2 272/8/2 273/8/2
f 273/8/2 272/8/2 274/8/2
f 275/2/2 276/2/2 277/2/2
f 277/2/2 276/2/2 278/2/2
f 277/9/2 278/9/2 279/9/2
f 279/9/2 278/9/2 280/9/2
f 281/7/2 282/7/2 285/7/2
f 282/4/2 283/4/2 286/4/2
f 285/7/2 282/7/2 286/7/2
f 283/7/2 284/7/2 287/7/2
f 286/4/2 283/4/2 287/4/2
f 287/7/2 284/7/2 288/7/2
f 286/6/2 287/6/2 293/6/2
f 287/6/2 288/6/2 293/6/2
f 293/6/2 288/6/2 294/6/2
f 288/3/2 289/3/2 295/3/2
f 294/6/2 288/6/2 295/6/2
f 289/8/2 290/8/2 296/8/2
f 295/3/2 289/3/2 296/3/2
f 296/8/2 290/8/2 297/8/2
f 291/8/2 292/8/2 298/8/2
f 298/8/2 292/8/2 299/8/2
f 299/9/2 300/9/2 303/9/2
f 303/9/2 300/9/2 304/9/2
f 301/8/2 302/8/2 305/8/2
f 305/8/2 302/8/2 306/8/2
f 305/14/2 306/14/2 308/14/2
f 306/14/2 307/14/2 308/14/2
f 308/14/2 307/14/2 309/14/2
f 309/14/2 307/14/2 310/14/2
f 310/14/2 307/14/2 311/14/2
f 312/13/2 313/13/2 315/13/2
f 313/13/2 314/13/2 315/13/2
f 315/13/2 314/13/2 316/13/2
f 317/4/2 318/4/2 323/4/2
f 318/7/2 319/7/2 324/7/2
f 323/4/2 318/4/2 324/4/2
f 324/7/2 319/7/2 325/7/2
f 320/7/2 321/7/2 326/7/2
f 321/4/2 322/4/2 327/4/2
f 326/7/2 321/7/2 327/7/2
f 327/4/2 322/4/2 328/4/2
f 328/8/2 329/8/2 332/8/2
f 332/8/2 329/8/2 333/8/2
f 330/8/2 331/8/2 334/8/2
f 330/8/2 334/8/2 339/8/2
f 334/7/2 335/7/2 340/7/2
f 339/8/2 334/8/2 340/8/2
f 336/8/2 337/8/2 341/8/2
f 340/7/2 335/7/2 341/7/2
f 335/8/2 336/8/2 341/8/2
f 341/8/2 337/8/2 342/8/2
f 342/8/2 337/8/2 343/8/2
f 343/8/2 337/8/2 344/8/2
f 338/8/2 339/8/2 345/8/2
f 340/8/2 341/8/2 346/8/2
f 346/8/2 341/8/2 347/8/2
f 342/8/2 343/8/2 348/8/2
f 348/8/2 343/8/2 349/8/2
f 338/8/2 345/8/2 350/8/2
f 350/8/2 345/8/2 351/8/2
f 348/13/2 349/13/2 354/13/2
f 354/13/2 349/13/2 355/13/2
f 351/8/2 352/8/2 359/8/2
f 359/8/2 352/8/2 360/8/2
f 353/8/2 354/8/2 361/8/2
f 361/8/2 354/8/2 362/8/2
f 357/11/2 358/11/2 363/11/2
f 363/11/2 358/11/2 364/11/2
f 360/13/2 361/13/2 366/13/2
f 366/13/2 361/13/2 367/13/2
f 363/10/2 364/10/2 369/10/2
f 369/10/2 364/10/2 370/10/2
f 365/13/2 366/13/2 371/13/2
f 371/13/2 366/13/2 372/13/2
f 367/13/2 368/13/2 373/13/2
f 373/13/2 368/13/2 374/13/2
f 355/14/2 356/14/2 375/14/2
f 375/14/2 356/14/2 376/14/2
f 370/13/2 371/13/2 377/13/2
f 377/13/2 371/13/2 378/13/2
f 374/14/2 375/14/2 379/14/2
f 379/14/2 375/14/2 380/14/2
f 381/9/2 382/9/2 385/9/2
f 385/9/2 382/9/2 386/9/2
f 383/8/2 384/8/2 387/8/2
f 387/8/2 384/8/2 388/8/2
f 389/9/2 390/9/2 393/9/2
f 393/9/2 390/9/2 394/9/2
f 391/8/2 392/8/2 395/8/2
f 395/8/2 392/8/2 396/8/2
f 397/8/2 398/8/2 400/8/2
f 400/8/2 398/8/2 401/8/2
f 399/13/2 400/13/2 403/13/2
f 400/13/2 401/13/2 403/13/2
f 403/13/2 401/13/2 404/13/2
f 404/13/2 401/13/2 405/13/2
f 405/13/2 401/13/2 406/13/2
f 402/13/2 403/13/2 408/13/2
f 404/13/2 405/13/2 409/13/2
f 409/13/2 405/13/2 410/13/2
f 406/13/2 407/13/2 411/13/2
f 402/13/2 408/13/2 412/13/2
f 408/13/2 409/13/2 412/13/2
f 412/13/2 409/13/2 413/13/2
f 410/13/2 411/13/2 414/13/2
f 411/13/2 407/13/2 415/13/2
f 414/13/2 411/13/2 415/13/2
f 402/13/2 412/13/2 416/13/2
f 416/13/2 412/13/2 417/13/2
f 413/13/2 414/13/2 418/13/2
f 418/13/2 414/13/2 419/13/2
f 415/13/2 407/13/2 420/13/2
f 420/13/2 407/13/2 421/13/2
f 418/13/2 419/13/2 422/13/2
f 419/13/2 420/13/2 422/13/2
f 417/13/2 418/13/2 422/13/2
f 422/13/2 420/13/2 423/13/2
f 423/13/2 420/13/2 424/13/2
f 424/13/2 420/13/2 425/13/2
f 426/9/2 427/9/2 430/9/2
f 430/9/2 427/9/2 431/9/2
f 428/8/2 429/8/2 432/8/2
f 432/8/2 429/8/2 433/8/2
f 434/8/2 435/8/2 436/8/2
f 436/8/2 435/8/2 437/8/2
f 438/13/2 439/13/2 440/13/2
f 440/13/2 439/13/2 441/13/2
f 440/12/2 441/12/2 442/12/2
f 442/12/2 441/12/2 443/12/2
f 444/8/2 445/8/2 446/8/2
f 446/8/2 445/8/2 447/8/2
f 448/8/2 449/8/2 450/8/2
f 450/8/2 449/8/2 451/8/2
f 452/8/2 453/8/2 454/8/2
f 454/8/2 453/8/2 455/8/2
f 456/8/2 457/8/2 458/8/2
f 458/8/2 457/8/2 459/8/2
f 462/12/3 461/12/3 460/12/3
f 463/12/3 461/12/3 462/12/3
f 464/11/3 463/11/3 462/11/3
f 465/11/3 463/11/3 464/11/3
f 466/11/3 464/11/3 462/11/3
f 467/10/3 465/10/3 464/10/3
f 467/11/3 464/11/3 466/11/3
f 468/10/3 465/10/3 467/10/3
f 474/14/3 470/14/3 469/14/3
f 475/14/3 470/14/3 474/14/3
f 476/14/3 470/14/3 475/14/3
f 478/7/3 472/7/3 471/7/3
f 479/7/3 472/7/3 478/7/3
f 481/8/3 474/8/3 473/8/3
f 481/8/3 475/8/3 474/8/3
f 482/8/3 475/8/3 481/8/3
f 483/14/3 477/14/3 476/14/3
f 484/14/3 477/14/3 483/14/3
f 485/4/3 479/4/3 478/4/3
f 486/4/3 479/4/3 485/4/3
f 487/8/3 481/8/3 480/8/3
f 488/8/3 481/8/3 487/8/3
f 491/7/3 486/7/3 485/7/3
f 492/7/3 486/7/3 491/7/3
f 493/8/3 490/8/3 489/8/3
f 494/8/3 490/8/3 493/8/3
f 495/13/3 484/13/3 483/13/3
f 496/4/3 492/4/3 491/4/3
f 497/4/3 492/4/3 496/4/3
f 500/7/3 497/7/3 496/7/3
f 501/7/3 497/7/3 500/7/3
f 502/8/3 499/8/3 498/8/3
f 503/8/3 499/8/3 502/8/3
f 505/13/3 484/13/3 495/13/3
f 506/4/3 501/4/3 500/4/3
f 507/4/3 501/4/3 506/4/3
f 508/8/3 504/8/3 503/8/3
f 509/8/3 504/8/3 508/8/3
f 510/8/3 504/8/3 509/8/3
f 512/13/3 484/13/3 505/13/3
f 513/13/3 484/13/3 512/13/3
f 514/13/3 511/13/3 510/13/3
f 514/13/3 512/13/3 511/13/3
f 514/13/3 510/13/3 509/13/3
f 515/13/3 512/13/3 514/13/3
f 522/14/3 517/14/3 516/14/3
f 523/14/3 517/14/3 522/14/3
f 524/14/3 519/14/3 518/14/3
f 525/14/3 519/14/3 524/14/3
f 527/8/3 521/8/3 520/8/3
f 528/8/3 521/8/3 527/8/3
f 529/8/3 521/8/3 528/8/3
f 535/4/3 527/4/3 526/4/3
f 535/4/3 528/4/3 527/4/3
f 536/4/3 528/4/3 535/4/3
f 537/1/3 530/1/3 529/1/3
f 538/15/3 531/15/3 530/15/3
f 538/1/3 530/1/3 537/1/3
f 539/8/3 532/8/3 531/8/3
f 539/15/3 531/15/3 538/15/3
f 540/8/3 532/8/3 539/8/3
f 541/14/3 534/14/3 533/14/3
f 542/14/3 534/14/3 541/14/3
f 543/7/3 536/7/3 535/7/3
f 544/5/3 537/5/3 536/5/3
f 544/7/3 536/7/3 543/7/3
f 545/1/3 538/1/3 537/1/3
f 545/5/3 537/5/3 544/5/3
f 546/9/3 539/9/3 538/9/3
f 546/1/3 538/1/3 545/1/3
f 547/9/3 539/9/3 546/9/3
f 549/4/3 544/4/3 543/4/3
f 549/4/3 545/4/3 544/4/3
f 550/4/3 545/4/3 549/4/3
f 551/4/3 545/4/3 550/4/3
f 552/9/3 547/9/3 546/9/3
f 552/4/3 545/4/3 551/4/3
f 552/9/3 546/9/3 545/9/3
f 553/9/3 547/9/3 552/9/3
f 554/8/3 548/8/3 547/8/3
f 554/9/3 547/9/3 553/9/3
f 555/7/3 550/7/3 549/7/3
f 556/4/3 551/4/3 550/4/3
f 556/7/3 550/7/3 555/7/3
f 557/4/3 551/4/3 556/4/3
f 558/9/3 553/9/3 552/9/3
f 559/15/3 554/15/3 553/15/3
f 559/9/3 553/9/3 558/9/3
f 560/8/3 548/8/3 554/8/3
f 560/15/3 554/15/3 559/15/3
f 561/8/3 548/8/3 560/8/3
f 562/13/3 542/13/3 541/13/3
f 563/13/3 542/13/3 562/13/3
f 564/8/3 557/8/3 556/8/3
f 564/8/3 558/8/3 557/8/3
f 565/8/3 558/8/3 564/8/3
f 570/13/3 567/13/3 566/13/3
f 571/13/3 567/13/3 570/13/3
f 572/13/3 569/13/3 568/13/3
f 573/13/3 569/13/3 572/13/3
f 579/9/3 575/9/3 574/9/3
f 580/9/3 575/9/3 579/9/3
f 586/14/3 577/14/3 576/14/3
f 587/13/3 578/13/3 577/13/3
f 587/14/3 577/14/3 586/14/3
f 588/13/3 578/13/3 587/13/3
f 589/6/3 581/6/3 580/6/3
f 590/6/3 581/6/3 589/6/3
f 593/14/3 583/14/3 582/14/3
f 594/14/3 583/14/3 593/14/3
f 595/14/3 585/14/3 584/14/3
f 596/14/3 585/14/3 595/14/3
f 597/14/3 587/14/3 586/14/3
f 598/14/3 587/14/3 597/14/3
f 602/8/3 592/8/3 591/8/3
f 603/8/3 592/8/3 602/8/3
f 604/2/3 600/2/3 599/2/3
f 605/9/3 601/9/3 600/9/3
f 605/2/3 600/2/3 604/2/3
f 606/9/3 601/9/3 605/9/3
f 610/2/3 608/2/3 607/2/3
f 611/9/3 609/9/3 608/9/3
f 611/2/3 608/2/3 610/2/3
f 612/9/3 609/9/3 611/9/3
f 619/8/3 614/8/3 613/8/3
f 620/8/3 614/8/3 619/8/3
f 627/9/3 616/9/3 615/9/3
f 628/9/3 616/9/3 627/9/3
f 629/9/3 618/9/3 617/9/3
f 630/9/3 618/9/3 629/9/3
f 631/13/3 622/13/3 621/13/3
f 632/13/3 622/13/3 631/13/3
f 633/13/3 624/13/3 623/13/3
f 634/13/3 624/13/3 633/13/3
f 635/13/3 626/13/3 625/13/3
f 636/13/3 626/13/3 635/13/3
f 638/9/3 629/9/3 628/9/3
f 639/9/3 629/9/3 638/9/3
f 640/13/3 636/13/3 635/13/3
f 641/12/3 637/12/3 636/12/3
f 641/13/3 636/13/3 640/13/3
f 642/12/3 637/12/3 641/12/3
f 645/8/3 644/8/3 643/8/3
f 646/8/3 644/8/3 645/8/3
f 649/14/3 648/14/3 647/14/3
f 650/14/3 648/14/3 649/14/3
f 655/8/3 652/8/3 651/8/3
f 656/8/3 652/8/3 655/8/3
f 657/13/3 654/13/3 653/13/3
f 658/13/3 654/13/3 657/13/3
f 661/8/3 660/8/3 659/8/3
f 662/8/3 660/8/3 661/8/3
f 667/14/3 664/14/3 663/14/3
f 668/14/3 664/14/3 667/14/3
f 669/14/3 666/14/3 665/14/3
f 670/14/3 666/14/3 669/14/3
f 677/13/3 672/13/3 671/13/3
f 678/13/3 672/13/3 677/13/3
f 679/13/3 674/13/3 673/13/3
f 680/13/3 674/13/3 679/13/3
f 681/8/3 676/8/3 675/8/3
f 682/8/3 676/8/3 681/8/3
f 685/8/3 684/8/3 683/8/3
f 686/8/3 684/8/3 685/8/3
f 690/8/3 688/8/3 687/8/3
f 691/8/3 688/8/3 690/8/3
f 693/8/3 690/8/3 689/8/3
f 694/8/3 690/8/3 693/8/3
f 695/8/3 692/8/3 691/8/3
f 696/8/3 692/8/3 695/8/3
f 698/8/3 695/8/3 694/8/3
f 699/8/3 695/8/3 698/8/3
f 700/8/3 698/8/3 697/8/3
f 701/8/3 698/8/3 700/8/3
f 702/14/4 703/14/4 708/14/4
f 708/14/4 703/14/4 709/14/4
f 704/14/4 705/14/4 710/14/4
f 710/14/4 705/14/4 711/14/4
f 706/8/4 707/8/4 712/8/4
f 712/8/4 707/8/4 713/8/4
f 714/8/4 715/8/4 716/8/4
f 716/8/4 715/8/4 717/8/4
f 718/13/4 719/13/4 722/13/4
f 722/13/4 719/13/4 723/13/4
f 720/13/4 721/13/4 724/13/4
f 724/13/4 721/13/4 725/13/4
f 726/14/4 727/14/4 728/14/4
f 728/14/4 727/14/4 729/14/4
f 730/8/4 731/8/4 732/8/4
f 732/8/4 731/8/4 733/8/4
f 734/13/4 735/13/4 736/13/4
f 736/13/4 735/13/4 737/13/4
f 738/9/4 739/9/4 743/9/4
f 743/9/4 739/9/4 744/9/4
f 740/14/4 741/14/4 750/14/4
f 741/13/4 742/13/4 751/13/4
f 750/14/4 741/14/4 751/14/4
f 751/13/4 742/13/4 752/13/4
f 744/6/4 745/6/4 753/6/4
f 753/6/4 745/6/4 754/6/4
f 746/14/4 747/14/4 756/14/4
f 756/14/4 747/14/4 757/14/4
f 748/14/4 749/14/4 758/14/4
f 758/14/4 749/14/4 759/14/4
f 750/14/4 751/14/4 760/14/4
f 760/14/4 751/14/4 761/14/4
f 754/9/4 755/9/4 765/9/4
f 765/9/4 755/9/4 766/9/4
f 762/2/4 763/2/4 767/2/4
f 763/9/4 764/9/4 768/9/4
f 767/2/4 763/2/4 768/2/4
f 768/9/4 764/9/4 769/9/4
f 770/2/4 771/2/4 773/2/4
f 771/9/4 772/9/4 774/9/4
f 773/2/4 771/2/4 774/2/4
f 774/9/4 772/9/4 775/9/4
f 776/9/4 777/9/4 786/9/4
f 786/9/4 777/9/4 787/9/4
f 778/9/4 779/9/4 788/9/4
f 788/9/4 779/9/4 789/9/4
f 780/13/4 781/13/4 790/13/4
f 790/13/4 781/13/4 791/13/4
f 782/13/4 783/13/4 792/13/4
f 792/13/4 783/13/4 793/13/4
f 784/13/4 785/13/4 794/13/4
f 794/13/4 785/13/4 795/13/4
f 787/9/4 788/9/4 797/9/4
f 797/9/4 788/9/4 798/9/4
f 794/13/4 795/13/4 799/13/4
f 795/12/4 796/12/4 800/12/4
f 799/13/4 795/13/4 800/13/4
f 800/12/4 796/12/4 801/12/4
f 802/8/4 803/8/4 804/8/4
f 804/8/4 803/8/4 805/8/4
f 806/14/4 807/14/4 812/14/4
f 812/14/4 807/14/4 813/14/4
f 808/14/4 809/14/4 814/14/4
f 814/14/4 809/14/4 815/14/4
f 810/8/4 811/8/4 817/8/4
f 817/8/4 811/8/4 818/8/4
f 816/4/4 817/4/4 821/4/4
f 821/4/4 817/4/4 822/4/4
f 819/14/4 820/14/4 823/14/4
f 823/14/4 820/14/4 824/14/4
f 821/7/4 822/7/4 825/7/4
f 825/7/4 822/7/4 826/7/4
f 825/4/4 826/4/4 827/4/4
f 827/4/4 826/4/4 828/4/4
f 828/4/4 826/4/4 829/4/4
f 827/7/4 828/7/4 830/7/4
f 830/7/4 828/7/4 831/7/4
f 823/13/4 824/13/4 832/13/4
f 832/13/4 824/13/4 833/13/4
f 834/8/4 835/8/4 839/8/4
f 835/13/4 836/13/4 840/13/4
f 839/8/4 835/8/4 840/8/4
f 840/13/4 836/13/4 841/13/4
f 837/13/4 838/13/4 842/13/4
f 842/13/4 838/13/4 843/13/4
f 844/8/4 845/8/4 846/8/4
f 846/8/4 845/8/4 847/8/4
f 848/14/4 849/14/4 854/14/4
f 854/14/4 849/14/4 855/14/4
f 850/7/4 851/7/4 857/7/4
f 857/7/4 851/7/4 858/7/4
f 852/8/4 853/8/4 860/8/4
f 853/13/4 854/13/4 861/13/4
f 860/8/4 853/8/4 861/8/4
f 861/13/4 854/13/4 862/13/4
f 857/4/4 858/4/4 863/4/4
f 863/4/4 858/4/4 864/4/4
f 859/8/4 860/8/4 865/8/4
f 865/8/4 860/8/4 866/8/4
f 863/7/4 864/7/4 869/7/4
f 869/7/4 864/7/4 870/7/4
f 869/4/4 870/4/4 871/4/4
f 871/4/4 870/4/4 872/4/4
f 866/8/4 867/8/4 874/8/4
f 867/14/4 868/14/4 875/14/4
f 874/8/4 867/8/4 875/8/4
f 875/14/4 868/14/4 876/14/4
f 871/7/4 872/7/4 877/7/4
f 877/7/4 872/7/4 878/7/4
f 873/8/4 874/8/4 879/8/4
f 879/8/4 874/8/4 880/8/4
f 877/4/4 878/4/4 883/4/4
f 883/4/4 878/4/4 884/4/4
f 880/8/4 881/8/4 885/8/4
f 881/13/4 882/13/4 886/13/4
f 885/8/4 881/8/4 886/8/4
f 886/13/4 882/13/4 887/13/4
f 855/14/4 856/14/4 888/14/4
f 888/14/4 856/14/4 889/14/4
f 887/13/4 888/13/4 892/13/4
f 892/13/4 888/13/4 893/13/4
f 890/8/4 891/8/4 894/8/4
f 894/8/4 891/8/4 895/8/4
f 896/8/4 897/8/4 898/8/4
f 898/8/4 897/8/4 899/8/4
f 900/14/4 901/14/4 904/14/4
f 904/14/4 901/14/4 905/14/4
f 902/8/4 903/8/4 907/8/4
f 907/8/4 903/8/4 908/8/4
f 906/8/4 907/8/4 910/8/4
f 910/8/4 907/8/4 911/8/4
f 909/8/4 910/8/4 914/8/4
f 914/8/4 910/8/4 915/8/4
f 911/8/4 912/8/4 916/8/4
f 916/8/4 912/8/4 917/8/4
f 905/14/4 901/14/4 919/14/4
f 913/8/4 914/8/4 921/8/4
f 921/8/4 914/8/4 922/8/4
f 915/8/4 916/8/4 923/8/4
f 923/8/4 916/8/4 924/8/4
f 918/14/4 919/14/4 925/14/4
f 919/14/4 901/14/4 926/14/4
f 925/14/4 919/14/4 926/14/4
f 920/8/4 921/8/4 927/8/4
f 927/8/4 921/8/4 928/8/4
f 922/8/4 923/8/4 929/8/4
f 929/8/4 923/8/4 930/8/4
f 928/8/4 929/8/4 932/8/4
f 932/8/4 929/8/4 933/8/4
f 931/8/4 932/8/4 934/8/4
f 934/8/4 932/8/4 935/8/4
f 936/14/4 937/14/4 938/14/4
f 938/14/4 937/14/4 939/14/4
f 939/14/4 937/14/4 941/14/4
f 940/14/4 941/14/4 942/14/4
f 941/14/4 937/14/4 943/14/4
f 942/14/4 941/14/4 943/14/4
f 948/2/5 945/2/5 944/2/5
f 949/2/5 945/2/5 948/2/5
f 950/2/5 947/2/5 946/2/5
f 951/2/5 947/2/5 950/2/5
f 959/7/5 953/7/5 952/7/5
f 960/4/5 954/4/5 953/4/5
f 960/7/5 953/7/5 959/7/5
f 961/4/5 958/4/5 957/4/5
f 961/7/5 957/7/5 956/7/5
f 962/4/5 958/4/5 961/4/5
f 965/4/5 960/4/5 959/4/5
f 966/4/5 954/4/5 960/4/5
f 966/4/5 960/4/5 965/4/5
f 967/7/5 955/7/5 954/7/5
f 967/4/5 954/4/5 966/4/5
f 968/4/5 956/4/5 955/4/5
f 968/7/5 961/7/5 956/7/5
f 968/7/5 962/7/5 961/7/5
f 969/7/5 962/7/5 968/7/5
f 970/7/5 962/7/5 969/7/5
f 972/9/5 964/9/5 963/9/5
f 973/9/5 964/9/5 972/9/5
f 974/7/5 966/7/5 965/7/5
f 975/7/5 966/7/5 974/7/5
f 976/7/5 955/7/5 967/7/5
f 977/4/5 968/4/5 955/4/5
f 978/4/5 970/4/5 969/4/5
f 979/9/5 971/9/5 970/9/5
f 979/4/5 970/4/5 978/4/5
f 980/9/5 971/9/5 979/9/5
f 981/4/5 975/4/5 974/4/5
f 981/4/5 976/4/5 975/4/5
f 982/4/5 976/4/5 981/4/5
f 983/7/5 979/7/5 978/7/5
f 983/7/5 978/7/5 977/7/5
f 984/7/5 979/7/5 983/7/5
f 985/7/5 982/7/5 981/7/5
f 986/4/5 976/4/5 982/4/5
f 986/7/5 982/7/5 985/7/5
f 987/7/5 955/7/5 976/7/5
f 987/4/5 976/4/5 986/4/5
f 988/4/5 977/4/5 955/4/5
f 988/7/5 955/7/5 987/7/5
f 989/7/5 983/7/5 977/7/5
f 989/4/5 977/4/5 988/4/5
f 990/4/5 984/4/5 983/4/5
f 990/7/5 983/7/5 989/7/5
f 991/4/5 984/4/5 990/4/5
f 995/8/5 992/8/5 991/8/5
f 996/8/5 992/8/5 995/8/5
f 997/8/5 994/8/5 993/8/5
f 998/8/5 994/8/5 997/8/5
f 1003/6/5 1000/6/5 999/6/5
f 1004/6/5 1000/6/5 1003/6/5
f 1005/9/5 1002/9/5 1001/9/5
f 1006/9/5 1002/9/5 1005/9/5
f 1013/8/5 1008/8/5 1007/8/5
f 1014/8/5 1008/8/5 1013/8/5
f 1015/8/5 1010/8/5 1009/8/5
f 1016/8/5 1010/8/5 1015/8/5
f 1017/8/5 1012/8/5 1011/8/5
f 1018/8/5 1012/8/5 1017/8/5
f 1023/8/5 1020/8/5 1019/8/5
f 1024/8/5 1020/8/5 1023/8/5
f 1025/8/5 1022/8/5 1021/8/5
f 1026/8/5 1022/8/5 1025/8/5
f 1028/9/5 1024/9/5 1023/9/5
f 1029/9/5 1024/9/5 1028/9/5
f 1030/9/5 1027/9/5 1026/9/5
f 1031/9/5 1027/9/5 1030/9/5
f 1036/8/5 1033/8/5 1032/8/5
f 1037/8/5 1033/8/5 1036/8/5
f 1038/3/5 1035/3/5 1034/3/5
f 1039/3/5 1035/3/5 1038/3/5
f 1042/8/5 1039/8/5 1038/8/5
f 1043/8/5 1039/8/5 1042/8/5
f 1044/8/5 1041/8/5 1040/8/5
f 1045/8/5 1041/8/5 1044/8/5
f 1050/8/5 1047/8/5 1046/8/5
f 1051/8/5 1047/8/5 1050/8/5
f 1052/8/5 1049/8/5 1048/8/5
f 1053/8/5 1049/8/5 1052/8/5
f 1060/7/5 1055/7/5 1054/7/5
f 1061/7/5 1055/7/5 1060/7/5
f 1062/8/5 1057/8/5 1056/8/5
f 1063/8/5 1057/8/5 1062/8/5
f 1064/8/5 1059/8/5 1058/8/5
f 1065/8/5 1059/8/5 1064/8/5
f 1069/8/5 1061/8/5 1060/8/5
f 1072/8/5 1068/8/5 1067/8/5
f 1072/8/5 1066/8/5 1065/8/5
f 1072/8/5 1067/8/5 1066/8/5
f 1073/8/5 1068/8/5 1072/8/5
f 1074/8/5 1068/8/5 1073/8/5
f 1075/8/5 1061/8/5 1069/8/5
f 1076/8/5 1061/8/5 1075/8/5
f 1077/8/5 1071/8/5 1070/8/5
f 1078/8/5 1071/8/5 1077/8/5
f 1079/8/5 1074/8/5 1073/8/5
f 1080/8/5 1074/8/5 1079/8/5
f 1081/8/5 1076/8/5 1075/8/5
f 1082/8/5 1076/8/5 1081/8/5
f 1087/8/5 1084/8/5 1083/8/5
f 1088/8/5 1084/8/5 1087/8/5
f 1089/8/5 1086/8/5 1085/8/5
f 1090/8/5 1086/8/5 1089/8/5
f 1095/8/5 1092/8/5 1091/8/5
f 1096/8/5 1092/8/5 1095/8/5
f 1097/8/5 1094/8/5 1093/8/5
f 1098/8/5 1094/8/5 1097/8/5
f 1102/8/5 1099/8/5 1098/8/5
f 1103/8/5 1099/8/5 1102/8/5
f 1104/8/5 1101/8/5 1100/8/5
f 1105/8/5 1101/8/5 1104/8/5
f 1112/14/5 1107/14/5 1106/14/5
f 1112/8/5 1108/8/5 1107/8/5
f 1113/8/5 1108/8/5 1112/8/5
f 1114/8/5 1110/8/5 1109/8/5
f 1115/13/5 1111/13/5 1110/13/5
f 1115/8/5 1110/8/5 1114/8/5
f 1116/13/5 1111/13/5 1115/13/5
f 1117/13/5 1111/13/5 1116/13/5
f 1118/14/5 1112/14/5 1106/14/5
f 1119/14/5 1112/14/5 1118/14/5
f 1124/14/5 1121/14/5 1120/14/5
f 1125/14/5 1121/14/5 1124/14/5
f 1126/14/5 1123/14/5 1122/14/5
f 1127/14/5 1123/14/5 1126/14/5
f 1134/14/5 1129/14/5 1128/14/5
f 1135/14/5 1129/14/5 1134/14/5
f 1136/8/5 1131/8/5 1130/8/5
f 1137/8/5 1131/8/5 1136/8/5
f 1138/13/5 1133/13/5 1132/13/5
f 1139/13/5 1133/13/5 1138/13/5
f 1144/14/5 1141/14/5 1140/14/5
f 1145/14/5 1141/14/5 1144/14/5
f 1150/13/5 1143/13/5 1142/13/5
f 1151/13/5 1143/13/5 1150/13/5
f 1152/14/5 1146/14/5 1145/14/5
f 1153/14/5 1146/14/5 1152/14/5
f 1154/14/5 1150/14/5 1149/14/5
f 1155/14/5 1150/14/5 1154/14/5
f 1156/14/5 1148/14/5 1147/14/5
f 1157/14/5 1148/14/5 1156/14/5
f 1161/12/5 1159/12/5 1158/12/5
f 1162/12/5 1159/12/5 1161/12/5
f 1163/12/5 1159/12/5 1162/12/5
f 1164/11/5 1160/11/5 1159/11/5
f 1164/12/5 1159/12/5 1163/12/5
f 1165/11/5 1160/11/5 1164/11/5
f 1166/11/5 1160/11/5 1165/11/5
f 1169/13/5 1163/13/5 1162/13/5
f 1170/13/5 1163/13/5 1169/13/5
f 1171/13/5 1165/13/5 1164/13/5
f 1172/13/5 1165/13/5 1171/13/5
f 1175/14/5 1168/14/5 1167/14/5
f 1176/14/5 1168/14/5 1175/14/5
f 1177/13/5 1174/13/5 1173/13/5
f 1178/13/5 1174/13/5 1177/13/5
f 1183/14/5 1180/14/5 1179/14/5
f 1184/14/5 1180/14/5 1183/14/5
f 1185/13/5 1182/13/5 1181/13/5
f 1186/13/5 1182/13/5 1185/13/5
f 1191/14/5 1188/14/5 1187/14/5
f 1192/14/5 1188/14/5 1191/14/5
f 1193/13/5 1190/13/5 1189/13/5
f 1194/13/5 1190/13/5 1193/13/5
f 1199/14/5 1196/14/5 1195/14/5
f 1200/14/5 1196/14/5 1199/14/5
f 1201/13/5 1198/13/5 1197/13/5
f 1202/13/5 1198/13/5 1201/13/5
f 1207/14/5 1204/14/5 1203/14/5
f 1208/14/5 1204/14/5 1207/14/5
f 1209/13/5 1206/13/5 1205/13/5
f 1210/13/5 1206/13/5 1209/13/5
f 1215/14/5 1212/14/5 1211/14/5
f 1216/14/5 1212/14/5 1215/14/5
f 1217/13/5 1214/13/5 1213/13/5
f 1218/13/5 1214/13/5 1217/13/5
f 1219/7/6 1220/7/6 1226/7/6
f 1220/4/6 1221/4/6 1227/4/6
f 1226/7/6 1220/7/6 1227/7/6
f 1221/7/6 1222/7/6 1228/7/6
f 1227/4/6 1221/4/6 1228/4/6
f 1222/4/6 1223/4/6 1229/4/6
f 1228/7/6 1222/7/6 1229/7/6
f 1223/7/6 1224/7/6 1230/7/6
f 1229/4/6 1223/4/6 1230/4/6
f 1224/4/6 1225/4/6 1231/4/6
f 1230/7/6 1224/7/6 1231/7/6
f 1231/4/6 1225/4/6 1232/4/6
f 1226/4/6 1227/4/6 1235/4/6
f 1235/4/6 1227/4/6 1236/4/6
f 1231/7/6 1232/7/6 1237/7/6
f 1237/7/6 1232/7/6 1238/7/6
f 1233/9/6 1234/9/6 1240/9/6
f 1240/9/6 1234/9/6 1241/9/6
f 1235/7/6 1236/7/6 1242/7/6
f 1242/7/6 1236/7/6 1243/7/6
f 1237/4/6 1238/4/6 1244/4/6
f 1238/9/6 1239/9/6 1245/9/6
f 1244/4/6 1238/4/6 1245/4/6
f 1245/9/6 1239/9/6 1246/9/6
f 1242/4/6 1243/4/6 1247/4/6
f 1247/4/6 1243/4/6 1248/4/6
f 1244/7/6 1245/7/6 1252/7/6
f 1252/7/6 1245/7/6 1253/7/6
f 1247/7/6 1248/7/6 1254/7/6
f 1248/4/6 1249/4/6 1255/4/6
f 1254/7/6 1248/7/6 1255/7/6
f 1249/7/6 1250/7/6 1256/7/6
f 1255/4/6 1249/4/6 1256/4/6
f 1250/4/6 1251/4/6 1257/4/6
f 1256/7/6 1250/7/6 1257/7/6
f 1251/7/6 1252/7/6 1258/7/6
f 1257/4/6 1251/4/6 1258/4/6
f 1252/4/6 1253/4/6 1259/4/6
f 1258/7/6 1252/7/6 1259/7/6
f 1259/4/6 1253/4/6 1260/4/6
f 1260/8/6 1261/8/6 1264/8/6
f 1264/8/6 1261/8/6 1265/8/6
f 1262/8/6 1263/8/6 1266/8/6
f 1266/8/6 1263/8/6 1267/8/6
f 1268/6/6 1269/6/6 1272/6/6
f 1272/6/6 1269/6/6 1273/6/6
f 1270/9/6 1271/9/6 1274/9/6
f 1274/9/6 1271/9/6 1275/9/6
f 1276/8/6 1277/8/6 1282/8/6
f 1282/8/6 1277/8/6 1283/8/6
f 1278/8/6 1279/8/6 1284/8/6
f 1284/8/6 1279/8/6 1285/8/6
f 1280/8/6 1281/8/6 1286/8/6
f 1286/8/6 1281/8/6 1287/8/6
f 1288/9/6 1289/9/6 1290/9/6
f 1290/9/6 1289/9/6 1291/9/6
f 1292/8/6 1293/8/6 1294/8/6
f 1294/8/6 1293/8/6 1295/8/6
f 1296/8/6 1297/8/6 1300/8/6
f 1300/8/6 1297/8/6 1301/8/6
f 1298/8/6 1299/8/6 1302/8/6
f 1302/8/6 1299/8/6 1303/8/6
f 1304/8/6 1305/8/6 1309/8/6
f 1309/8/6 1305/8/6 1310/8/6
f 1306/8/6 1307/8/6 1311/8/6
f 1311/8/6 1307/8/6 1312/8/6
f 1308/8/6 1309/8/6 1314/8/6
f 1314/8/6 1309/8/6 1315/8/6
f 1312/8/6 1313/8/6 1316/8/6
f 1316/8/6 1313/8/6 1317/8/6
f 1318/8/6 1319/8/6 1320/8/6
f 1320/8/6 1319/8/6 1321/8/6
f 1322/8/6 1323/8/6 1328/8/6
f 1328/8/6 1323/8/6 1329/8/6
f 1324/8/6 1325/8/6 1330/8/6
f 1330/8/6 1325/8/6 1331/8/6
f 1326/8/6 1327/8/6 1332/8/6
f 1332/8/6 1327/8/6 1333/8/6
f 1334/14/6 1335/14/6 1338/14/6
f 1338/14/6 1335/14/6 1339/14/6
f 1336/13/6 1337/13/6 1340/13/6
f 1340/13/6 1337/13/6 1341/13/6
f 1342/14/6 1343/14/6 1346/14/6
f 1346/14/6 1343/14/6 1347/14/6
f 1344/13/6 1345/13/6 1348/13/6
f 1348/13/6 1345/13/6 1349/13/6
f 1350/14/6 1351/14/6 1354/14/6
f 1354/14/6 1351/14/6 1355/14/6
f 1352/13/6 1353/13/6 1356/13/6
f 1356/13/6 1353/13/6 1357/13/6
f 1358/14/6 1359/14/6 1362/14/6
f 1362/14/6 1359/14/6 1363/14/6
f 1360/13/6 1361/13/6 1364/13/6
f 1364/13/6 1361/13/6 1365/13/6
f 1366/14/6 1367/14/6 1370/14/6
f 1370/14/6 1367/14/6 1371/14/6
f 1368/13/6 1369/13/6 1372/13/6
f 1372/13/6 1369/13/6 1373/13/6
f 1374/14/6 1375/14/6 1376/14/6
f 1376/14/6 1375/14/6 1377/14/6
f 1378/12/6 1379/12/6 1383/12/6
f 1383/12/6 1379/12/6 1384/12/6
f 1379/11/6 1380/11/6 1385/11/6
f 1384/12/6 1379/12/6 1385/12/6
f 1380/10/6 1381/10/6 1386/10/6
f 1385/11/6 1380/11/6 1386/11/6
f 1386/10/6 1381/10/6 1387/10/6
f 1382/14/6 1383/14/6 1389/14/6
f 1389/14/6 1383/14/6 1390/14/6
f 1387/13/6 1388/13/6 1391/13/6
f 1391/13/6 1388/13/6 1392/13/6
f 1393/14/6 1394/14/6 1397/14/6
f 1397/14/6 1394/14/6 1398/14/6
f 1395/13/6 1396/13/6 1399/13/6
f 1399/13/6 1396/13/6 1400/13/6
f 1398/14/6 1399/14/6 1401/14/6
f 1401/14/6 1399/14/6 1402/14/6
f 1403/14/6 1404/14/6 1407/14/6
f 1404/13/6 1405/13/6 1408/13/6
f 1407/14/6 1404/14/6 1408/14/6
f 1408/13/6 1405/13/6 1409/13/6
f 1409/13/6 1405/13/6 1410/13/6
f 1410/13/6 1405/13/6 1411/13/6
f 1406/14/6 1407/14/6 1413/14/6
f 1407/14/6 1408/14/6 1413/14/6
f 1413/14/6 1408/14/6 1414/14/6
f 1411/13/6 1412/13/6 1415/13/6
f 1410/13/6 1411/13/6 1415/13/6
f 1415/13/6 1412/13/6 1416/13/6
f 1414/14/6 1408/14/6 1418/14/6
f 1410/13/6 1415/13/6 1419/13/6
f 1419/13/6 1415/13/6 1420/13/6
f 1417/14/6 1418/14/6 1422/14/6
f 1418/14/6 1408/14/6 1423/14/6
f 1422/14/6 1418/14/6 1423/14/6
f 1423/14/6 1408/14/6 1424/14/6
f 1419/14/6 1420/14/6 1426/14/6
f 1420/13/6 1421/13/6 1427/13/6
f 1426/14/6 1420/14/6 1427/14/6
f 1427/13/6 1421/13/6 1428/13/6
f 1425/14/6 1426/14/6 1429/14/6
f 1424/14/6 1425/14/6 1429/14/6
f 1426/14/6 1427/14/6 1429/14/6
f 1423/14/6 1424/14/6 1429/14/6
f 1429/14/6 1427/14/6 1430/14/6
f 1434/14/6 1435/14/6 1438/14/6
f 1438/14/6 1435/14/6 1439/14/6
f 1436/13/6 1437/13/6 1440/13/6
f 1440/13/6 1437/13/6 1441/13/6
f 1431/14/6 1432/14/6 1442/14/6
f 1432/13/6 1433/13/6 1443/13/6
f 1442/14/6 1432/14/6 1443/14/6
f 1443/13/6 1433/13/6 1444/13/6
f 1445/13/6 1446/13/6 1449/13/6
f 1449/13/6 1446/13/6 1450/13/6
f 1447/12/6 1448/12/6 1451/12/6
f 1451/12/6 1448/12/6 1452/12/6
